<mxfile host="app.diagrams.net" agent="Mozilla/5.0 (Windows NT 10.0; Win64; x64) AppleWebKit/537.36 (KHTML, like Gecko) Chrome/127.0.0.0 Safari/537.36 OPR/113.0.0.0" version="24.7.17">
  <diagram id="C5RBs43oDa-KdzZeNtuy" name="Page-1">
    <mxGraphModel dx="2014" dy="634" grid="1" gridSize="10" guides="1" tooltips="1" connect="1" arrows="1" fold="1" page="1" pageScale="1" pageWidth="827" pageHeight="1169" math="0" shadow="0">
      <root>
        <mxCell id="WIyWlLk6GJQsqaUBKTNV-0" />
        <mxCell id="WIyWlLk6GJQsqaUBKTNV-1" parent="WIyWlLk6GJQsqaUBKTNV-0" />
        <mxCell id="mTHOiytMiAY_9Srzv-4_-0" value="App" style="shape=module;align=left;spacingLeft=20;align=center;verticalAlign=top;whiteSpace=wrap;html=1;" parent="WIyWlLk6GJQsqaUBKTNV-1" vertex="1">
          <mxGeometry x="40" y="20" width="280" height="140" as="geometry" />
        </mxCell>
        <mxCell id="mTHOiytMiAY_9Srzv-4_-1" value="main" style="swimlane;fontStyle=1;align=center;verticalAlign=top;childLayout=stackLayout;horizontal=1;startSize=26;horizontalStack=0;resizeParent=1;resizeParentMax=0;resizeLast=0;collapsible=1;marginBottom=0;whiteSpace=wrap;html=1;" parent="WIyWlLk6GJQsqaUBKTNV-1" vertex="1">
          <mxGeometry x="100" y="70" width="160" height="34" as="geometry" />
        </mxCell>
        <mxCell id="mTHOiytMiAY_9Srzv-4_-3" value="" style="line;strokeWidth=1;fillColor=none;align=left;verticalAlign=middle;spacingTop=-1;spacingLeft=3;spacingRight=3;rotatable=0;labelPosition=right;points=[];portConstraint=eastwest;strokeColor=inherit;" parent="mTHOiytMiAY_9Srzv-4_-1" vertex="1">
          <mxGeometry y="26" width="160" height="8" as="geometry" />
        </mxCell>
        <mxCell id="mTHOiytMiAY_9Srzv-4_-5" value="&lt;span style=&quot;font-weight: 400;&quot;&gt;«interface» IBeverage&lt;/span&gt;" style="swimlane;fontStyle=1;align=center;verticalAlign=top;childLayout=stackLayout;horizontal=1;startSize=26;horizontalStack=0;resizeParent=1;resizeParentMax=0;resizeLast=0;collapsible=1;marginBottom=0;whiteSpace=wrap;html=1;" parent="WIyWlLk6GJQsqaUBKTNV-1" vertex="1">
          <mxGeometry x="280" y="210" width="160" height="86" as="geometry" />
        </mxCell>
        <mxCell id="mTHOiytMiAY_9Srzv-4_-7" value="" style="line;strokeWidth=1;fillColor=none;align=left;verticalAlign=middle;spacingTop=-1;spacingLeft=3;spacingRight=3;rotatable=0;labelPosition=right;points=[];portConstraint=eastwest;strokeColor=inherit;" parent="mTHOiytMiAY_9Srzv-4_-5" vertex="1">
          <mxGeometry y="26" width="160" height="8" as="geometry" />
        </mxCell>
        <mxCell id="mTHOiytMiAY_9Srzv-4_-8" value="+ GetDescription(): string" style="text;strokeColor=none;fillColor=none;align=left;verticalAlign=top;spacingLeft=4;spacingRight=4;overflow=hidden;rotatable=0;points=[[0,0.5],[1,0.5]];portConstraint=eastwest;whiteSpace=wrap;html=1;" parent="mTHOiytMiAY_9Srzv-4_-5" vertex="1">
          <mxGeometry y="34" width="160" height="26" as="geometry" />
        </mxCell>
        <mxCell id="mTHOiytMiAY_9Srzv-4_-9" value="+ GetCost(): double" style="text;strokeColor=none;fillColor=none;align=left;verticalAlign=top;spacingLeft=4;spacingRight=4;overflow=hidden;rotatable=0;points=[[0,0.5],[1,0.5]];portConstraint=eastwest;whiteSpace=wrap;html=1;" parent="mTHOiytMiAY_9Srzv-4_-5" vertex="1">
          <mxGeometry y="60" width="160" height="26" as="geometry" />
        </mxCell>
        <mxCell id="mTHOiytMiAY_9Srzv-4_-10" value="Coffee" style="shape=module;align=left;spacingLeft=20;align=center;verticalAlign=top;whiteSpace=wrap;html=1;" parent="WIyWlLk6GJQsqaUBKTNV-1" vertex="1">
          <mxGeometry x="160" y="380" width="400" height="320" as="geometry" />
        </mxCell>
        <mxCell id="mTHOiytMiAY_9Srzv-4_-11" value="Coffee" style="swimlane;fontStyle=1;align=center;verticalAlign=top;childLayout=stackLayout;horizontal=1;startSize=26;horizontalStack=0;resizeParent=1;resizeParentMax=0;resizeLast=0;collapsible=1;marginBottom=0;whiteSpace=wrap;html=1;" parent="WIyWlLk6GJQsqaUBKTNV-1" vertex="1">
          <mxGeometry x="280" y="420" width="160" height="86" as="geometry" />
        </mxCell>
        <mxCell id="mTHOiytMiAY_9Srzv-4_-13" value="" style="line;strokeWidth=1;fillColor=none;align=left;verticalAlign=middle;spacingTop=-1;spacingLeft=3;spacingRight=3;rotatable=0;labelPosition=right;points=[];portConstraint=eastwest;strokeColor=inherit;" parent="mTHOiytMiAY_9Srzv-4_-11" vertex="1">
          <mxGeometry y="26" width="160" height="8" as="geometry" />
        </mxCell>
        <mxCell id="mTHOiytMiAY_9Srzv-4_-15" value="+ GetDescription(): string" style="text;strokeColor=none;fillColor=none;align=left;verticalAlign=top;spacingLeft=4;spacingRight=4;overflow=hidden;rotatable=0;points=[[0,0.5],[1,0.5]];portConstraint=eastwest;whiteSpace=wrap;html=1;" parent="mTHOiytMiAY_9Srzv-4_-11" vertex="1">
          <mxGeometry y="34" width="160" height="26" as="geometry" />
        </mxCell>
        <mxCell id="mTHOiytMiAY_9Srzv-4_-16" value="+ GetCost(): double" style="text;strokeColor=none;fillColor=none;align=left;verticalAlign=top;spacingLeft=4;spacingRight=4;overflow=hidden;rotatable=0;points=[[0,0.5],[1,0.5]];portConstraint=eastwest;whiteSpace=wrap;html=1;" parent="mTHOiytMiAY_9Srzv-4_-11" vertex="1">
          <mxGeometry y="60" width="160" height="26" as="geometry" />
        </mxCell>
        <mxCell id="mTHOiytMiAY_9Srzv-4_-17" value="" style="endArrow=block;dashed=1;endFill=0;endSize=12;html=1;rounded=0;" parent="WIyWlLk6GJQsqaUBKTNV-1" source="mTHOiytMiAY_9Srzv-4_-11" target="mTHOiytMiAY_9Srzv-4_-5" edge="1">
          <mxGeometry width="160" relative="1" as="geometry">
            <mxPoint x="250" y="490" as="sourcePoint" />
            <mxPoint x="410" y="490" as="targetPoint" />
          </mxGeometry>
        </mxCell>
        <mxCell id="mTHOiytMiAY_9Srzv-4_-18" value="Latte" style="swimlane;fontStyle=1;align=center;verticalAlign=top;childLayout=stackLayout;horizontal=1;startSize=26;horizontalStack=0;resizeParent=1;resizeParentMax=0;resizeLast=0;collapsible=1;marginBottom=0;whiteSpace=wrap;html=1;" parent="WIyWlLk6GJQsqaUBKTNV-1" vertex="1">
          <mxGeometry x="390" y="560" width="160" height="112" as="geometry" />
        </mxCell>
        <mxCell id="bPhTvkimOsz3Hw0aRtpX-1" value="- m_size: unsigned int" style="text;strokeColor=none;fillColor=none;align=left;verticalAlign=top;spacingLeft=4;spacingRight=4;overflow=hidden;rotatable=0;points=[[0,0.5],[1,0.5]];portConstraint=eastwest;whiteSpace=wrap;html=1;" parent="mTHOiytMiAY_9Srzv-4_-18" vertex="1">
          <mxGeometry y="26" width="160" height="26" as="geometry" />
        </mxCell>
        <mxCell id="mTHOiytMiAY_9Srzv-4_-19" value="" style="line;strokeWidth=1;fillColor=none;align=left;verticalAlign=middle;spacingTop=-1;spacingLeft=3;spacingRight=3;rotatable=0;labelPosition=right;points=[];portConstraint=eastwest;strokeColor=inherit;" parent="mTHOiytMiAY_9Srzv-4_-18" vertex="1">
          <mxGeometry y="52" width="160" height="8" as="geometry" />
        </mxCell>
        <mxCell id="mTHOiytMiAY_9Srzv-4_-20" value="+ GetDescription(): string" style="text;strokeColor=none;fillColor=none;align=left;verticalAlign=top;spacingLeft=4;spacingRight=4;overflow=hidden;rotatable=0;points=[[0,0.5],[1,0.5]];portConstraint=eastwest;whiteSpace=wrap;html=1;" parent="mTHOiytMiAY_9Srzv-4_-18" vertex="1">
          <mxGeometry y="60" width="160" height="26" as="geometry" />
        </mxCell>
        <mxCell id="mTHOiytMiAY_9Srzv-4_-21" value="+ GetCost(): double" style="text;strokeColor=none;fillColor=none;align=left;verticalAlign=top;spacingLeft=4;spacingRight=4;overflow=hidden;rotatable=0;points=[[0,0.5],[1,0.5]];portConstraint=eastwest;whiteSpace=wrap;html=1;" parent="mTHOiytMiAY_9Srzv-4_-18" vertex="1">
          <mxGeometry y="86" width="160" height="26" as="geometry" />
        </mxCell>
        <mxCell id="mTHOiytMiAY_9Srzv-4_-22" value="Extends" style="endArrow=block;endSize=16;endFill=0;html=1;rounded=0;" parent="WIyWlLk6GJQsqaUBKTNV-1" source="mTHOiytMiAY_9Srzv-4_-18" target="mTHOiytMiAY_9Srzv-4_-11" edge="1">
          <mxGeometry width="160" relative="1" as="geometry">
            <mxPoint x="210" y="530" as="sourcePoint" />
            <mxPoint x="370" y="530" as="targetPoint" />
          </mxGeometry>
        </mxCell>
        <mxCell id="mTHOiytMiAY_9Srzv-4_-28" value="Cappuccino" style="swimlane;fontStyle=1;align=center;verticalAlign=top;childLayout=stackLayout;horizontal=1;startSize=26;horizontalStack=0;resizeParent=1;resizeParentMax=0;resizeLast=0;collapsible=1;marginBottom=0;whiteSpace=wrap;html=1;" parent="WIyWlLk6GJQsqaUBKTNV-1" vertex="1">
          <mxGeometry x="190" y="560" width="160" height="112" as="geometry" />
        </mxCell>
        <mxCell id="bPhTvkimOsz3Hw0aRtpX-0" value="- m_size: unsigned int" style="text;strokeColor=none;fillColor=none;align=left;verticalAlign=top;spacingLeft=4;spacingRight=4;overflow=hidden;rotatable=0;points=[[0,0.5],[1,0.5]];portConstraint=eastwest;whiteSpace=wrap;html=1;" parent="mTHOiytMiAY_9Srzv-4_-28" vertex="1">
          <mxGeometry y="26" width="160" height="26" as="geometry" />
        </mxCell>
        <mxCell id="mTHOiytMiAY_9Srzv-4_-29" value="" style="line;strokeWidth=1;fillColor=none;align=left;verticalAlign=middle;spacingTop=-1;spacingLeft=3;spacingRight=3;rotatable=0;labelPosition=right;points=[];portConstraint=eastwest;strokeColor=inherit;" parent="mTHOiytMiAY_9Srzv-4_-28" vertex="1">
          <mxGeometry y="52" width="160" height="8" as="geometry" />
        </mxCell>
        <mxCell id="mTHOiytMiAY_9Srzv-4_-30" value="+ GetDescription(): string" style="text;strokeColor=none;fillColor=none;align=left;verticalAlign=top;spacingLeft=4;spacingRight=4;overflow=hidden;rotatable=0;points=[[0,0.5],[1,0.5]];portConstraint=eastwest;whiteSpace=wrap;html=1;" parent="mTHOiytMiAY_9Srzv-4_-28" vertex="1">
          <mxGeometry y="60" width="160" height="26" as="geometry" />
        </mxCell>
        <mxCell id="mTHOiytMiAY_9Srzv-4_-31" value="+ GetCost(): double" style="text;strokeColor=none;fillColor=none;align=left;verticalAlign=top;spacingLeft=4;spacingRight=4;overflow=hidden;rotatable=0;points=[[0,0.5],[1,0.5]];portConstraint=eastwest;whiteSpace=wrap;html=1;" parent="mTHOiytMiAY_9Srzv-4_-28" vertex="1">
          <mxGeometry y="86" width="160" height="26" as="geometry" />
        </mxCell>
        <mxCell id="mTHOiytMiAY_9Srzv-4_-36" value="Extends" style="endArrow=block;endSize=16;endFill=0;html=1;rounded=0;" parent="WIyWlLk6GJQsqaUBKTNV-1" source="mTHOiytMiAY_9Srzv-4_-28" target="mTHOiytMiAY_9Srzv-4_-11" edge="1">
          <mxGeometry width="160" relative="1" as="geometry">
            <mxPoint x="446" y="570" as="sourcePoint" />
            <mxPoint x="404" y="516" as="targetPoint" />
          </mxGeometry>
        </mxCell>
        <mxCell id="mTHOiytMiAY_9Srzv-4_-38" value="Tea" style="shape=module;align=left;spacingLeft=20;align=center;verticalAlign=top;whiteSpace=wrap;html=1;" parent="WIyWlLk6GJQsqaUBKTNV-1" vertex="1">
          <mxGeometry x="-320" y="383" width="400" height="440" as="geometry" />
        </mxCell>
        <mxCell id="mTHOiytMiAY_9Srzv-4_-39" value="Tea" style="swimlane;fontStyle=1;align=center;verticalAlign=top;childLayout=stackLayout;horizontal=1;startSize=26;horizontalStack=0;resizeParent=1;resizeParentMax=0;resizeLast=0;collapsible=1;marginBottom=0;whiteSpace=wrap;html=1;" parent="WIyWlLk6GJQsqaUBKTNV-1" vertex="1">
          <mxGeometry x="-100" y="410" width="160" height="86" as="geometry" />
        </mxCell>
        <mxCell id="mTHOiytMiAY_9Srzv-4_-40" value="" style="line;strokeWidth=1;fillColor=none;align=left;verticalAlign=middle;spacingTop=-1;spacingLeft=3;spacingRight=3;rotatable=0;labelPosition=right;points=[];portConstraint=eastwest;strokeColor=inherit;" parent="mTHOiytMiAY_9Srzv-4_-39" vertex="1">
          <mxGeometry y="26" width="160" height="8" as="geometry" />
        </mxCell>
        <mxCell id="mTHOiytMiAY_9Srzv-4_-41" value="+ GetDescription(): string" style="text;strokeColor=none;fillColor=none;align=left;verticalAlign=top;spacingLeft=4;spacingRight=4;overflow=hidden;rotatable=0;points=[[0,0.5],[1,0.5]];portConstraint=eastwest;whiteSpace=wrap;html=1;" parent="mTHOiytMiAY_9Srzv-4_-39" vertex="1">
          <mxGeometry y="34" width="160" height="26" as="geometry" />
        </mxCell>
        <mxCell id="mTHOiytMiAY_9Srzv-4_-42" value="+ GetCost(): double" style="text;strokeColor=none;fillColor=none;align=left;verticalAlign=top;spacingLeft=4;spacingRight=4;overflow=hidden;rotatable=0;points=[[0,0.5],[1,0.5]];portConstraint=eastwest;whiteSpace=wrap;html=1;" parent="mTHOiytMiAY_9Srzv-4_-39" vertex="1">
          <mxGeometry y="60" width="160" height="26" as="geometry" />
        </mxCell>
        <mxCell id="mTHOiytMiAY_9Srzv-4_-43" value="" style="endArrow=block;dashed=1;endFill=0;endSize=12;html=1;rounded=0;" parent="WIyWlLk6GJQsqaUBKTNV-1" source="mTHOiytMiAY_9Srzv-4_-39" target="mTHOiytMiAY_9Srzv-4_-5" edge="1">
          <mxGeometry width="160" relative="1" as="geometry">
            <mxPoint x="337" y="430" as="sourcePoint" />
            <mxPoint x="243" y="306" as="targetPoint" />
          </mxGeometry>
        </mxCell>
        <mxCell id="mTHOiytMiAY_9Srzv-4_-44" value="BlackTea" style="swimlane;fontStyle=1;align=center;verticalAlign=top;childLayout=stackLayout;horizontal=1;startSize=26;horizontalStack=0;resizeParent=1;resizeParentMax=0;resizeLast=0;collapsible=1;marginBottom=0;whiteSpace=wrap;html=1;" parent="WIyWlLk6GJQsqaUBKTNV-1" vertex="1">
          <mxGeometry x="-270" y="520" width="160" height="60" as="geometry" />
        </mxCell>
        <mxCell id="mTHOiytMiAY_9Srzv-4_-45" value="" style="line;strokeWidth=1;fillColor=none;align=left;verticalAlign=middle;spacingTop=-1;spacingLeft=3;spacingRight=3;rotatable=0;labelPosition=right;points=[];portConstraint=eastwest;strokeColor=inherit;" parent="mTHOiytMiAY_9Srzv-4_-44" vertex="1">
          <mxGeometry y="26" width="160" height="8" as="geometry" />
        </mxCell>
        <mxCell id="mTHOiytMiAY_9Srzv-4_-46" value="+ GetDescription(): string" style="text;strokeColor=none;fillColor=none;align=left;verticalAlign=top;spacingLeft=4;spacingRight=4;overflow=hidden;rotatable=0;points=[[0,0.5],[1,0.5]];portConstraint=eastwest;whiteSpace=wrap;html=1;" parent="mTHOiytMiAY_9Srzv-4_-44" vertex="1">
          <mxGeometry y="34" width="160" height="26" as="geometry" />
        </mxCell>
        <mxCell id="mTHOiytMiAY_9Srzv-4_-48" value="GreenTea" style="swimlane;fontStyle=1;align=center;verticalAlign=top;childLayout=stackLayout;horizontal=1;startSize=26;horizontalStack=0;resizeParent=1;resizeParentMax=0;resizeLast=0;collapsible=1;marginBottom=0;whiteSpace=wrap;html=1;" parent="WIyWlLk6GJQsqaUBKTNV-1" vertex="1">
          <mxGeometry x="-270" y="590" width="160" height="60" as="geometry" />
        </mxCell>
        <mxCell id="mTHOiytMiAY_9Srzv-4_-49" value="" style="line;strokeWidth=1;fillColor=none;align=left;verticalAlign=middle;spacingTop=-1;spacingLeft=3;spacingRight=3;rotatable=0;labelPosition=right;points=[];portConstraint=eastwest;strokeColor=inherit;" parent="mTHOiytMiAY_9Srzv-4_-48" vertex="1">
          <mxGeometry y="26" width="160" height="8" as="geometry" />
        </mxCell>
        <mxCell id="mTHOiytMiAY_9Srzv-4_-50" value="+ GetDescription(): string" style="text;strokeColor=none;fillColor=none;align=left;verticalAlign=top;spacingLeft=4;spacingRight=4;overflow=hidden;rotatable=0;points=[[0,0.5],[1,0.5]];portConstraint=eastwest;whiteSpace=wrap;html=1;" parent="mTHOiytMiAY_9Srzv-4_-48" vertex="1">
          <mxGeometry y="34" width="160" height="26" as="geometry" />
        </mxCell>
        <mxCell id="mTHOiytMiAY_9Srzv-4_-51" value="IvanTea" style="swimlane;fontStyle=1;align=center;verticalAlign=top;childLayout=stackLayout;horizontal=1;startSize=26;horizontalStack=0;resizeParent=1;resizeParentMax=0;resizeLast=0;collapsible=1;marginBottom=0;whiteSpace=wrap;html=1;" parent="WIyWlLk6GJQsqaUBKTNV-1" vertex="1">
          <mxGeometry x="-270" y="660" width="160" height="60" as="geometry" />
        </mxCell>
        <mxCell id="mTHOiytMiAY_9Srzv-4_-52" value="" style="line;strokeWidth=1;fillColor=none;align=left;verticalAlign=middle;spacingTop=-1;spacingLeft=3;spacingRight=3;rotatable=0;labelPosition=right;points=[];portConstraint=eastwest;strokeColor=inherit;" parent="mTHOiytMiAY_9Srzv-4_-51" vertex="1">
          <mxGeometry y="26" width="160" height="8" as="geometry" />
        </mxCell>
        <mxCell id="mTHOiytMiAY_9Srzv-4_-53" value="+ GetDescription(): string" style="text;strokeColor=none;fillColor=none;align=left;verticalAlign=top;spacingLeft=4;spacingRight=4;overflow=hidden;rotatable=0;points=[[0,0.5],[1,0.5]];portConstraint=eastwest;whiteSpace=wrap;html=1;" parent="mTHOiytMiAY_9Srzv-4_-51" vertex="1">
          <mxGeometry y="34" width="160" height="26" as="geometry" />
        </mxCell>
        <mxCell id="mTHOiytMiAY_9Srzv-4_-54" value="WhiteTea" style="swimlane;fontStyle=1;align=center;verticalAlign=top;childLayout=stackLayout;horizontal=1;startSize=26;horizontalStack=0;resizeParent=1;resizeParentMax=0;resizeLast=0;collapsible=1;marginBottom=0;whiteSpace=wrap;html=1;" parent="WIyWlLk6GJQsqaUBKTNV-1" vertex="1">
          <mxGeometry x="-270" y="730" width="160" height="60" as="geometry" />
        </mxCell>
        <mxCell id="mTHOiytMiAY_9Srzv-4_-55" value="" style="line;strokeWidth=1;fillColor=none;align=left;verticalAlign=middle;spacingTop=-1;spacingLeft=3;spacingRight=3;rotatable=0;labelPosition=right;points=[];portConstraint=eastwest;strokeColor=inherit;" parent="mTHOiytMiAY_9Srzv-4_-54" vertex="1">
          <mxGeometry y="26" width="160" height="8" as="geometry" />
        </mxCell>
        <mxCell id="mTHOiytMiAY_9Srzv-4_-56" value="+ GetDescription(): string" style="text;strokeColor=none;fillColor=none;align=left;verticalAlign=top;spacingLeft=4;spacingRight=4;overflow=hidden;rotatable=0;points=[[0,0.5],[1,0.5]];portConstraint=eastwest;whiteSpace=wrap;html=1;" parent="mTHOiytMiAY_9Srzv-4_-54" vertex="1">
          <mxGeometry y="34" width="160" height="26" as="geometry" />
        </mxCell>
        <mxCell id="mTHOiytMiAY_9Srzv-4_-57" value="Extends" style="endArrow=block;endSize=16;endFill=0;html=1;rounded=0;" parent="WIyWlLk6GJQsqaUBKTNV-1" source="mTHOiytMiAY_9Srzv-4_-54" target="mTHOiytMiAY_9Srzv-4_-39" edge="1">
          <mxGeometry x="-0.1995" y="-3" width="160" relative="1" as="geometry">
            <mxPoint x="-1" y="724" as="sourcePoint" />
            <mxPoint x="-1" y="660" as="targetPoint" />
            <Array as="points">
              <mxPoint y="760" />
            </Array>
            <mxPoint as="offset" />
          </mxGeometry>
        </mxCell>
        <mxCell id="mTHOiytMiAY_9Srzv-4_-58" value="Extends" style="endArrow=block;endSize=16;endFill=0;html=1;rounded=0;" parent="WIyWlLk6GJQsqaUBKTNV-1" source="mTHOiytMiAY_9Srzv-4_-51" target="mTHOiytMiAY_9Srzv-4_-39" edge="1">
          <mxGeometry width="160" relative="1" as="geometry">
            <mxPoint x="-100" y="770" as="sourcePoint" />
            <mxPoint x="-6" y="506" as="targetPoint" />
            <Array as="points">
              <mxPoint x="-20" y="690" />
            </Array>
          </mxGeometry>
        </mxCell>
        <mxCell id="mTHOiytMiAY_9Srzv-4_-59" value="Extends" style="endArrow=block;endSize=16;endFill=0;html=1;rounded=0;" parent="WIyWlLk6GJQsqaUBKTNV-1" source="mTHOiytMiAY_9Srzv-4_-48" target="mTHOiytMiAY_9Srzv-4_-39" edge="1">
          <mxGeometry width="160" relative="1" as="geometry">
            <mxPoint x="-90" y="780" as="sourcePoint" />
            <mxPoint x="4" y="516" as="targetPoint" />
            <Array as="points">
              <mxPoint x="-30" y="620" />
            </Array>
          </mxGeometry>
        </mxCell>
        <mxCell id="mTHOiytMiAY_9Srzv-4_-60" value="Extends" style="endArrow=block;endSize=16;endFill=0;html=1;rounded=0;" parent="WIyWlLk6GJQsqaUBKTNV-1" source="mTHOiytMiAY_9Srzv-4_-44" target="mTHOiytMiAY_9Srzv-4_-39" edge="1">
          <mxGeometry width="160" relative="1" as="geometry">
            <mxPoint x="-80" y="790" as="sourcePoint" />
            <mxPoint x="14" y="526" as="targetPoint" />
            <Array as="points">
              <mxPoint x="-40" y="550" />
            </Array>
          </mxGeometry>
        </mxCell>
        <mxCell id="mTHOiytMiAY_9Srzv-4_-61" value="MilShake" style="shape=module;align=left;spacingLeft=20;align=center;verticalAlign=top;whiteSpace=wrap;html=1;" parent="WIyWlLk6GJQsqaUBKTNV-1" vertex="1">
          <mxGeometry x="620" y="380" width="290" height="400" as="geometry" />
        </mxCell>
        <mxCell id="mTHOiytMiAY_9Srzv-4_-62" value="MilkShake" style="swimlane;fontStyle=1;align=center;verticalAlign=top;childLayout=stackLayout;horizontal=1;startSize=26;horizontalStack=0;resizeParent=1;resizeParentMax=0;resizeLast=0;collapsible=1;marginBottom=0;whiteSpace=wrap;html=1;" parent="WIyWlLk6GJQsqaUBKTNV-1" vertex="1">
          <mxGeometry x="687" y="420" width="160" height="86" as="geometry" />
        </mxCell>
        <mxCell id="mTHOiytMiAY_9Srzv-4_-63" value="" style="line;strokeWidth=1;fillColor=none;align=left;verticalAlign=middle;spacingTop=-1;spacingLeft=3;spacingRight=3;rotatable=0;labelPosition=right;points=[];portConstraint=eastwest;strokeColor=inherit;" parent="mTHOiytMiAY_9Srzv-4_-62" vertex="1">
          <mxGeometry y="26" width="160" height="8" as="geometry" />
        </mxCell>
        <mxCell id="mTHOiytMiAY_9Srzv-4_-64" value="+ GetDescription(): string" style="text;strokeColor=none;fillColor=none;align=left;verticalAlign=top;spacingLeft=4;spacingRight=4;overflow=hidden;rotatable=0;points=[[0,0.5],[1,0.5]];portConstraint=eastwest;whiteSpace=wrap;html=1;" parent="mTHOiytMiAY_9Srzv-4_-62" vertex="1">
          <mxGeometry y="34" width="160" height="26" as="geometry" />
        </mxCell>
        <mxCell id="mTHOiytMiAY_9Srzv-4_-65" value="+ GetCost(): double" style="text;strokeColor=none;fillColor=none;align=left;verticalAlign=top;spacingLeft=4;spacingRight=4;overflow=hidden;rotatable=0;points=[[0,0.5],[1,0.5]];portConstraint=eastwest;whiteSpace=wrap;html=1;" parent="mTHOiytMiAY_9Srzv-4_-62" vertex="1">
          <mxGeometry y="60" width="160" height="26" as="geometry" />
        </mxCell>
        <mxCell id="mTHOiytMiAY_9Srzv-4_-66" value="SmallMilkShake" style="swimlane;fontStyle=1;align=center;verticalAlign=top;childLayout=stackLayout;horizontal=1;startSize=26;horizontalStack=0;resizeParent=1;resizeParentMax=0;resizeLast=0;collapsible=1;marginBottom=0;whiteSpace=wrap;html=1;" parent="WIyWlLk6GJQsqaUBKTNV-1" vertex="1">
          <mxGeometry x="685" y="570" width="160" height="86" as="geometry" />
        </mxCell>
        <mxCell id="mTHOiytMiAY_9Srzv-4_-67" value="" style="line;strokeWidth=1;fillColor=none;align=left;verticalAlign=middle;spacingTop=-1;spacingLeft=3;spacingRight=3;rotatable=0;labelPosition=right;points=[];portConstraint=eastwest;strokeColor=inherit;" parent="mTHOiytMiAY_9Srzv-4_-66" vertex="1">
          <mxGeometry y="26" width="160" height="8" as="geometry" />
        </mxCell>
        <mxCell id="mTHOiytMiAY_9Srzv-4_-68" value="+ GetDescription(): string" style="text;strokeColor=none;fillColor=none;align=left;verticalAlign=top;spacingLeft=4;spacingRight=4;overflow=hidden;rotatable=0;points=[[0,0.5],[1,0.5]];portConstraint=eastwest;whiteSpace=wrap;html=1;" parent="mTHOiytMiAY_9Srzv-4_-66" vertex="1">
          <mxGeometry y="34" width="160" height="26" as="geometry" />
        </mxCell>
        <mxCell id="mTHOiytMiAY_9Srzv-4_-69" value="+ GetCost(): double" style="text;strokeColor=none;fillColor=none;align=left;verticalAlign=top;spacingLeft=4;spacingRight=4;overflow=hidden;rotatable=0;points=[[0,0.5],[1,0.5]];portConstraint=eastwest;whiteSpace=wrap;html=1;" parent="mTHOiytMiAY_9Srzv-4_-66" vertex="1">
          <mxGeometry y="60" width="160" height="26" as="geometry" />
        </mxCell>
        <mxCell id="mTHOiytMiAY_9Srzv-4_-70" value="LargeMilkShake" style="swimlane;fontStyle=1;align=center;verticalAlign=top;childLayout=stackLayout;horizontal=1;startSize=26;horizontalStack=0;resizeParent=1;resizeParentMax=0;resizeLast=0;collapsible=1;marginBottom=0;whiteSpace=wrap;html=1;" parent="WIyWlLk6GJQsqaUBKTNV-1" vertex="1">
          <mxGeometry x="685" y="680" width="160" height="86" as="geometry" />
        </mxCell>
        <mxCell id="mTHOiytMiAY_9Srzv-4_-71" value="" style="line;strokeWidth=1;fillColor=none;align=left;verticalAlign=middle;spacingTop=-1;spacingLeft=3;spacingRight=3;rotatable=0;labelPosition=right;points=[];portConstraint=eastwest;strokeColor=inherit;" parent="mTHOiytMiAY_9Srzv-4_-70" vertex="1">
          <mxGeometry y="26" width="160" height="8" as="geometry" />
        </mxCell>
        <mxCell id="mTHOiytMiAY_9Srzv-4_-72" value="+ GetDescription(): string" style="text;strokeColor=none;fillColor=none;align=left;verticalAlign=top;spacingLeft=4;spacingRight=4;overflow=hidden;rotatable=0;points=[[0,0.5],[1,0.5]];portConstraint=eastwest;whiteSpace=wrap;html=1;" parent="mTHOiytMiAY_9Srzv-4_-70" vertex="1">
          <mxGeometry y="34" width="160" height="26" as="geometry" />
        </mxCell>
        <mxCell id="mTHOiytMiAY_9Srzv-4_-73" value="+ GetCost(): double" style="text;strokeColor=none;fillColor=none;align=left;verticalAlign=top;spacingLeft=4;spacingRight=4;overflow=hidden;rotatable=0;points=[[0,0.5],[1,0.5]];portConstraint=eastwest;whiteSpace=wrap;html=1;" parent="mTHOiytMiAY_9Srzv-4_-70" vertex="1">
          <mxGeometry y="60" width="160" height="26" as="geometry" />
        </mxCell>
        <mxCell id="mTHOiytMiAY_9Srzv-4_-74" value="" style="endArrow=block;dashed=1;endFill=0;endSize=12;html=1;rounded=0;" parent="WIyWlLk6GJQsqaUBKTNV-1" source="mTHOiytMiAY_9Srzv-4_-62" target="mTHOiytMiAY_9Srzv-4_-5" edge="1">
          <mxGeometry width="160" relative="1" as="geometry">
            <mxPoint x="370" y="430" as="sourcePoint" />
            <mxPoint x="370" y="306" as="targetPoint" />
          </mxGeometry>
        </mxCell>
        <mxCell id="mTHOiytMiAY_9Srzv-4_-75" value="Extends" style="endArrow=block;endSize=16;endFill=0;html=1;rounded=0;" parent="WIyWlLk6GJQsqaUBKTNV-1" source="mTHOiytMiAY_9Srzv-4_-66" target="mTHOiytMiAY_9Srzv-4_-62" edge="1">
          <mxGeometry width="160" relative="1" as="geometry">
            <mxPoint x="446" y="570" as="sourcePoint" />
            <mxPoint x="404" y="516" as="targetPoint" />
          </mxGeometry>
        </mxCell>
        <mxCell id="mTHOiytMiAY_9Srzv-4_-76" value="Extends" style="endArrow=block;endSize=16;endFill=0;html=1;rounded=0;" parent="WIyWlLk6GJQsqaUBKTNV-1" source="mTHOiytMiAY_9Srzv-4_-70" target="mTHOiytMiAY_9Srzv-4_-62" edge="1">
          <mxGeometry width="160" relative="1" as="geometry">
            <mxPoint x="776" y="580" as="sourcePoint" />
            <mxPoint x="776" y="516" as="targetPoint" />
            <Array as="points">
              <mxPoint x="880" y="723" />
              <mxPoint x="880" y="470" />
            </Array>
          </mxGeometry>
        </mxCell>
        <mxCell id="mTHOiytMiAY_9Srzv-4_-77" value="Condiment" style="shape=module;align=left;spacingLeft=20;align=center;verticalAlign=top;whiteSpace=wrap;html=1;" parent="WIyWlLk6GJQsqaUBKTNV-1" vertex="1">
          <mxGeometry x="990" y="150" width="980" height="890" as="geometry" />
        </mxCell>
        <mxCell id="mTHOiytMiAY_9Srzv-4_-78" value="CondimentDecorator" style="swimlane;fontStyle=1;align=center;verticalAlign=top;childLayout=stackLayout;horizontal=1;startSize=26;horizontalStack=0;resizeParent=1;resizeParentMax=0;resizeLast=0;collapsible=1;marginBottom=0;whiteSpace=wrap;html=1;" parent="WIyWlLk6GJQsqaUBKTNV-1" vertex="1">
          <mxGeometry x="1110" y="332" width="210" height="164" as="geometry" />
        </mxCell>
        <mxCell id="mTHOiytMiAY_9Srzv-4_-84" value="- m_beverage: IBeverage" style="text;strokeColor=none;fillColor=none;align=left;verticalAlign=top;spacingLeft=4;spacingRight=4;overflow=hidden;rotatable=0;points=[[0,0.5],[1,0.5]];portConstraint=eastwest;whiteSpace=wrap;html=1;" parent="mTHOiytMiAY_9Srzv-4_-78" vertex="1">
          <mxGeometry y="26" width="210" height="26" as="geometry" />
        </mxCell>
        <mxCell id="mTHOiytMiAY_9Srzv-4_-79" value="" style="line;strokeWidth=1;fillColor=none;align=left;verticalAlign=middle;spacingTop=-1;spacingLeft=3;spacingRight=3;rotatable=0;labelPosition=right;points=[];portConstraint=eastwest;strokeColor=inherit;" parent="mTHOiytMiAY_9Srzv-4_-78" vertex="1">
          <mxGeometry y="52" width="210" height="8" as="geometry" />
        </mxCell>
        <mxCell id="mTHOiytMiAY_9Srzv-4_-80" value="+ GetDescription(): string" style="text;strokeColor=none;fillColor=none;align=left;verticalAlign=top;spacingLeft=4;spacingRight=4;overflow=hidden;rotatable=0;points=[[0,0.5],[1,0.5]];portConstraint=eastwest;whiteSpace=wrap;html=1;" parent="mTHOiytMiAY_9Srzv-4_-78" vertex="1">
          <mxGeometry y="60" width="210" height="26" as="geometry" />
        </mxCell>
        <mxCell id="mTHOiytMiAY_9Srzv-4_-81" value="+ GetCost(): double" style="text;strokeColor=none;fillColor=none;align=left;verticalAlign=top;spacingLeft=4;spacingRight=4;overflow=hidden;rotatable=0;points=[[0,0.5],[1,0.5]];portConstraint=eastwest;whiteSpace=wrap;html=1;" parent="mTHOiytMiAY_9Srzv-4_-78" vertex="1">
          <mxGeometry y="86" width="210" height="26" as="geometry" />
        </mxCell>
        <mxCell id="mTHOiytMiAY_9Srzv-4_-82" value="# GetCondimentDescription(): string" style="text;strokeColor=none;fillColor=none;align=left;verticalAlign=top;spacingLeft=4;spacingRight=4;overflow=hidden;rotatable=0;points=[[0,0.5],[1,0.5]];portConstraint=eastwest;whiteSpace=wrap;html=1;" parent="mTHOiytMiAY_9Srzv-4_-78" vertex="1">
          <mxGeometry y="112" width="210" height="26" as="geometry" />
        </mxCell>
        <mxCell id="mTHOiytMiAY_9Srzv-4_-83" value="# GetCondimentCost(): double" style="text;strokeColor=none;fillColor=none;align=left;verticalAlign=top;spacingLeft=4;spacingRight=4;overflow=hidden;rotatable=0;points=[[0,0.5],[1,0.5]];portConstraint=eastwest;whiteSpace=wrap;html=1;" parent="mTHOiytMiAY_9Srzv-4_-78" vertex="1">
          <mxGeometry y="138" width="210" height="26" as="geometry" />
        </mxCell>
        <mxCell id="mTHOiytMiAY_9Srzv-4_-85" value="" style="endArrow=block;dashed=1;endFill=0;endSize=12;html=1;rounded=0;" parent="WIyWlLk6GJQsqaUBKTNV-1" source="mTHOiytMiAY_9Srzv-4_-78" target="mTHOiytMiAY_9Srzv-4_-5" edge="1">
          <mxGeometry width="160" relative="1" as="geometry">
            <mxPoint x="800" y="380" as="sourcePoint" />
            <mxPoint x="960" y="380" as="targetPoint" />
          </mxGeometry>
        </mxCell>
        <mxCell id="mTHOiytMiAY_9Srzv-4_-86" value="" style="endArrow=diamondThin;endFill=1;endSize=24;html=1;rounded=0;" parent="WIyWlLk6GJQsqaUBKTNV-1" source="mTHOiytMiAY_9Srzv-4_-5" target="mTHOiytMiAY_9Srzv-4_-78" edge="1">
          <mxGeometry width="160" relative="1" as="geometry">
            <mxPoint x="790" y="380" as="sourcePoint" />
            <mxPoint x="950" y="380" as="targetPoint" />
            <Array as="points">
              <mxPoint x="800" y="260" />
            </Array>
          </mxGeometry>
        </mxCell>
        <mxCell id="mTHOiytMiAY_9Srzv-4_-87" value="Cinnamon" style="swimlane;fontStyle=1;align=center;verticalAlign=top;childLayout=stackLayout;horizontal=1;startSize=26;horizontalStack=0;resizeParent=1;resizeParentMax=0;resizeLast=0;collapsible=1;marginBottom=0;whiteSpace=wrap;html=1;" parent="WIyWlLk6GJQsqaUBKTNV-1" vertex="1">
          <mxGeometry x="1410" y="200" width="210" height="86" as="geometry" />
        </mxCell>
        <mxCell id="mTHOiytMiAY_9Srzv-4_-89" value="" style="line;strokeWidth=1;fillColor=none;align=left;verticalAlign=middle;spacingTop=-1;spacingLeft=3;spacingRight=3;rotatable=0;labelPosition=right;points=[];portConstraint=eastwest;strokeColor=inherit;" parent="mTHOiytMiAY_9Srzv-4_-87" vertex="1">
          <mxGeometry y="26" width="210" height="8" as="geometry" />
        </mxCell>
        <mxCell id="mTHOiytMiAY_9Srzv-4_-92" value="# GetCondimentDescription(): string" style="text;strokeColor=none;fillColor=none;align=left;verticalAlign=top;spacingLeft=4;spacingRight=4;overflow=hidden;rotatable=0;points=[[0,0.5],[1,0.5]];portConstraint=eastwest;whiteSpace=wrap;html=1;" parent="mTHOiytMiAY_9Srzv-4_-87" vertex="1">
          <mxGeometry y="34" width="210" height="26" as="geometry" />
        </mxCell>
        <mxCell id="mTHOiytMiAY_9Srzv-4_-93" value="# GetCondimentCost(): double" style="text;strokeColor=none;fillColor=none;align=left;verticalAlign=top;spacingLeft=4;spacingRight=4;overflow=hidden;rotatable=0;points=[[0,0.5],[1,0.5]];portConstraint=eastwest;whiteSpace=wrap;html=1;" parent="mTHOiytMiAY_9Srzv-4_-87" vertex="1">
          <mxGeometry y="60" width="210" height="26" as="geometry" />
        </mxCell>
        <mxCell id="mTHOiytMiAY_9Srzv-4_-94" value="Extends" style="endArrow=block;endSize=16;endFill=0;html=1;rounded=0;" parent="WIyWlLk6GJQsqaUBKTNV-1" source="mTHOiytMiAY_9Srzv-4_-87" target="mTHOiytMiAY_9Srzv-4_-78" edge="1">
          <mxGeometry width="160" relative="1" as="geometry">
            <mxPoint x="1130" y="400" as="sourcePoint" />
            <mxPoint x="1290" y="400" as="targetPoint" />
          </mxGeometry>
        </mxCell>
        <mxCell id="mTHOiytMiAY_9Srzv-4_-95" value="Lemon" style="swimlane;fontStyle=1;align=center;verticalAlign=top;childLayout=stackLayout;horizontal=1;startSize=26;horizontalStack=0;resizeParent=1;resizeParentMax=0;resizeLast=0;collapsible=1;marginBottom=0;whiteSpace=wrap;html=1;" parent="WIyWlLk6GJQsqaUBKTNV-1" vertex="1">
          <mxGeometry x="1444" y="308" width="210" height="112" as="geometry" />
        </mxCell>
        <mxCell id="mTHOiytMiAY_9Srzv-4_-99" value="-&amp;nbsp;m_quantity&lt;span style=&quot;color: rgba(0, 0, 0, 0); font-family: monospace; font-size: 0px; text-wrap: nowrap;&quot;&gt;%3CmxGraphModel%3E%3Croot%3E%3CmxCell%20id%3D%220%22%2F%3E%3CmxCell%20id%3D%221%22%20parent%3D%220%22%2F%3E%3CmxCell%20id%3D%222%22%20value%3D%22%23%20GetCondimentDescription()%3A%20string%22%20style%3D%22text%3BstrokeColor%3Dnone%3BfillColor%3Dnone%3Balign%3Dleft%3BverticalAlign%3Dtop%3BspacingLeft%3D4%3BspacingRight%3D4%3Boverflow%3Dhidden%3Brotatable%3D0%3Bpoints%3D%5B%5B0%2C0.5%5D%2C%5B1%2C0.5%5D%5D%3BportConstraint%3Deastwest%3BwhiteSpace%3Dwrap%3Bhtml%3D1%3B%22%20vertex%3D%221%22%20parent%3D%221%22%3E%3CmxGeometry%20x%3D%221460%22%20y%3D%22384%22%20width%3D%22210%22%20height%3D%2226%22%20as%3D%22geometry%22%2F%3E%3C%2FmxCell%3E%3C%2Froot%3E%3C%2FmxGraphModel%3E&lt;/span&gt;&lt;font face=&quot;monospace&quot;&gt;&lt;font color=&quot;rgba(0, 0, 0, 0)&quot;&gt;&lt;span style=&quot;font-size: 0px; text-wrap: nowrap;&quot;&gt;m_quantit&lt;/span&gt;&lt;/font&gt;&lt;font color=&quot;#ba0000&quot;&gt;&lt;span style=&quot;font-size: 0px; text-wrap: nowrap;&quot;&gt;m_quantity&lt;/span&gt;&lt;/font&gt;&lt;font color=&quot;rgba(0, 0, 0, 0)&quot;&gt;&lt;span style=&quot;font-size: 0px; text-wrap: nowrap;&quot;&gt;y&lt;/span&gt;&lt;/font&gt;&lt;/font&gt;: unsigned int" style="text;strokeColor=none;fillColor=none;align=left;verticalAlign=top;spacingLeft=4;spacingRight=4;overflow=hidden;rotatable=0;points=[[0,0.5],[1,0.5]];portConstraint=eastwest;whiteSpace=wrap;html=1;" parent="mTHOiytMiAY_9Srzv-4_-95" vertex="1">
          <mxGeometry y="26" width="210" height="26" as="geometry" />
        </mxCell>
        <mxCell id="mTHOiytMiAY_9Srzv-4_-96" value="" style="line;strokeWidth=1;fillColor=none;align=left;verticalAlign=middle;spacingTop=-1;spacingLeft=3;spacingRight=3;rotatable=0;labelPosition=right;points=[];portConstraint=eastwest;strokeColor=inherit;" parent="mTHOiytMiAY_9Srzv-4_-95" vertex="1">
          <mxGeometry y="52" width="210" height="8" as="geometry" />
        </mxCell>
        <mxCell id="mTHOiytMiAY_9Srzv-4_-97" value="# GetCondimentDescription(): string" style="text;strokeColor=none;fillColor=none;align=left;verticalAlign=top;spacingLeft=4;spacingRight=4;overflow=hidden;rotatable=0;points=[[0,0.5],[1,0.5]];portConstraint=eastwest;whiteSpace=wrap;html=1;" parent="mTHOiytMiAY_9Srzv-4_-95" vertex="1">
          <mxGeometry y="60" width="210" height="26" as="geometry" />
        </mxCell>
        <mxCell id="mTHOiytMiAY_9Srzv-4_-98" value="# GetCondimentCost(): double" style="text;strokeColor=none;fillColor=none;align=left;verticalAlign=top;spacingLeft=4;spacingRight=4;overflow=hidden;rotatable=0;points=[[0,0.5],[1,0.5]];portConstraint=eastwest;whiteSpace=wrap;html=1;" parent="mTHOiytMiAY_9Srzv-4_-95" vertex="1">
          <mxGeometry y="86" width="210" height="26" as="geometry" />
        </mxCell>
        <mxCell id="mTHOiytMiAY_9Srzv-4_-100" value="&lt;span style=&quot;font-weight: 400;&quot;&gt;«enumaration»&amp;nbsp;IceCubeType&lt;/span&gt;" style="swimlane;fontStyle=1;align=center;verticalAlign=top;childLayout=stackLayout;horizontal=1;startSize=26;horizontalStack=0;resizeParent=1;resizeParentMax=0;resizeLast=0;collapsible=1;marginBottom=0;whiteSpace=wrap;html=1;" parent="WIyWlLk6GJQsqaUBKTNV-1" vertex="1">
          <mxGeometry x="1740" y="468" width="190" height="86" as="geometry" />
        </mxCell>
        <mxCell id="mTHOiytMiAY_9Srzv-4_-103" value="+ Dry" style="text;strokeColor=none;fillColor=none;align=left;verticalAlign=top;spacingLeft=4;spacingRight=4;overflow=hidden;rotatable=0;points=[[0,0.5],[1,0.5]];portConstraint=eastwest;whiteSpace=wrap;html=1;" parent="mTHOiytMiAY_9Srzv-4_-100" vertex="1">
          <mxGeometry y="26" width="190" height="26" as="geometry" />
        </mxCell>
        <mxCell id="mTHOiytMiAY_9Srzv-4_-104" value="+ Water" style="text;strokeColor=none;fillColor=none;align=left;verticalAlign=top;spacingLeft=4;spacingRight=4;overflow=hidden;rotatable=0;points=[[0,0.5],[1,0.5]];portConstraint=eastwest;whiteSpace=wrap;html=1;" parent="mTHOiytMiAY_9Srzv-4_-100" vertex="1">
          <mxGeometry y="52" width="190" height="26" as="geometry" />
        </mxCell>
        <mxCell id="mTHOiytMiAY_9Srzv-4_-101" value="" style="line;strokeWidth=1;fillColor=none;align=left;verticalAlign=middle;spacingTop=-1;spacingLeft=3;spacingRight=3;rotatable=0;labelPosition=right;points=[];portConstraint=eastwest;strokeColor=inherit;" parent="mTHOiytMiAY_9Srzv-4_-100" vertex="1">
          <mxGeometry y="78" width="190" height="8" as="geometry" />
        </mxCell>
        <mxCell id="mTHOiytMiAY_9Srzv-4_-105" value="Extends" style="endArrow=block;endSize=16;endFill=0;html=1;rounded=0;" parent="WIyWlLk6GJQsqaUBKTNV-1" source="mTHOiytMiAY_9Srzv-4_-95" target="mTHOiytMiAY_9Srzv-4_-78" edge="1">
          <mxGeometry width="160" relative="1" as="geometry">
            <mxPoint x="1450" y="296" as="sourcePoint" />
            <mxPoint x="1330" y="364" as="targetPoint" />
          </mxGeometry>
        </mxCell>
        <mxCell id="mTHOiytMiAY_9Srzv-4_-106" value="IceCube" style="swimlane;fontStyle=1;align=center;verticalAlign=top;childLayout=stackLayout;horizontal=1;startSize=26;horizontalStack=0;resizeParent=1;resizeParentMax=0;resizeLast=0;collapsible=1;marginBottom=0;whiteSpace=wrap;html=1;" parent="WIyWlLk6GJQsqaUBKTNV-1" vertex="1">
          <mxGeometry x="1444" y="442" width="210" height="138" as="geometry" />
        </mxCell>
        <mxCell id="mTHOiytMiAY_9Srzv-4_-107" value="-&amp;nbsp;m_quantity&lt;span style=&quot;color: rgba(0, 0, 0, 0); font-family: monospace; font-size: 0px; text-wrap: nowrap;&quot;&gt;%3CmxGraphModel%3E%3Croot%3E%3CmxCell%20id%3D%220%22%2F%3E%3CmxCell%20id%3D%221%22%20parent%3D%220%22%2F%3E%3CmxCell%20id%3D%222%22%20value%3D%22%23%20GetCondimentDescription()%3A%20string%22%20style%3D%22text%3BstrokeColor%3Dnone%3BfillColor%3Dnone%3Balign%3Dleft%3BverticalAlign%3Dtop%3BspacingLeft%3D4%3BspacingRight%3D4%3Boverflow%3Dhidden%3Brotatable%3D0%3Bpoints%3D%5B%5B0%2C0.5%5D%2C%5B1%2C0.5%5D%5D%3BportConstraint%3Deastwest%3BwhiteSpace%3Dwrap%3Bhtml%3D1%3B%22%20vertex%3D%221%22%20parent%3D%221%22%3E%3CmxGeometry%20x%3D%221460%22%20y%3D%22384%22%20width%3D%22210%22%20height%3D%2226%22%20as%3D%22geometry%22%2F%3E%3C%2FmxCell%3E%3C%2Froot%3E%3C%2FmxGraphModel%3E&lt;/span&gt;&lt;font face=&quot;monospace&quot;&gt;&lt;font color=&quot;rgba(0, 0, 0, 0)&quot;&gt;&lt;span style=&quot;font-size: 0px; text-wrap: nowrap;&quot;&gt;m_quantit&lt;/span&gt;&lt;/font&gt;&lt;font color=&quot;#ba0000&quot;&gt;&lt;span style=&quot;font-size: 0px; text-wrap: nowrap;&quot;&gt;m_quantity&lt;/span&gt;&lt;/font&gt;&lt;font color=&quot;rgba(0, 0, 0, 0)&quot;&gt;&lt;span style=&quot;font-size: 0px; text-wrap: nowrap;&quot;&gt;y&lt;/span&gt;&lt;/font&gt;&lt;/font&gt;: unsigned int" style="text;strokeColor=none;fillColor=none;align=left;verticalAlign=top;spacingLeft=4;spacingRight=4;overflow=hidden;rotatable=0;points=[[0,0.5],[1,0.5]];portConstraint=eastwest;whiteSpace=wrap;html=1;" parent="mTHOiytMiAY_9Srzv-4_-106" vertex="1">
          <mxGeometry y="26" width="210" height="26" as="geometry" />
        </mxCell>
        <mxCell id="mTHOiytMiAY_9Srzv-4_-112" value="-&amp;nbsp;m_type&lt;span style=&quot;color: rgba(0, 0, 0, 0); font-family: monospace; font-size: 0px; text-wrap: nowrap;&quot;&gt;%3CmxGraphModel%3E%3Croot%3E%3CmxCell%20id%3D%220%22%2F%3E%3CmxCell%20id%3D%221%22%20parent%3D%220%22%2F%3E%3CmxCell%20id%3D%222%22%20value%3D%22%23%20GetCondimentDescription()%3A%20string%22%20style%3D%22text%3BstrokeColor%3Dnone%3BfillColor%3Dnone%3Balign%3Dleft%3BverticalAlign%3Dtop%3BspacingLeft%3D4%3BspacingRight%3D4%3Boverflow%3Dhidden%3Brotatable%3D0%3Bpoints%3D%5B%5B0%2C0.5%5D%2C%5B1%2C0.5%5D%5D%3BportConstraint%3Deastwest%3BwhiteSpace%3Dwrap%3Bhtml%3D1%3B%22%20vertex%3D%221%22%20parent%3D%221%22%3E%3CmxGeometry%20x%3D%221460%22%20y%3D%22384%22%20width%3D%22210%22%20height%3D%2226%22%20as%3D%22geometry%22%2F%3E%3C%2FmxCell%3E%3C%2Froot%3E%3C%2FmxGraphModel%3E&lt;/span&gt;&lt;font face=&quot;monospace&quot;&gt;&lt;font color=&quot;rgba(0, 0, 0, 0)&quot;&gt;&lt;span style=&quot;font-size: 0px; text-wrap: nowrap;&quot;&gt;m_quantit&lt;/span&gt;&lt;/font&gt;&lt;font color=&quot;#ba0000&quot;&gt;&lt;span style=&quot;font-size: 0px; text-wrap: nowrap;&quot;&gt;m_quantity&lt;/span&gt;&lt;/font&gt;&lt;font color=&quot;rgba(0, 0, 0, 0)&quot;&gt;&lt;span style=&quot;font-size: 0px; text-wrap: nowrap;&quot;&gt;y&lt;/span&gt;&lt;/font&gt;&lt;/font&gt;:&amp;nbsp;&lt;span style=&quot;text-align: center;&quot;&gt;IceCubeType&lt;/span&gt;" style="text;strokeColor=none;fillColor=none;align=left;verticalAlign=top;spacingLeft=4;spacingRight=4;overflow=hidden;rotatable=0;points=[[0,0.5],[1,0.5]];portConstraint=eastwest;whiteSpace=wrap;html=1;" parent="mTHOiytMiAY_9Srzv-4_-106" vertex="1">
          <mxGeometry y="52" width="210" height="26" as="geometry" />
        </mxCell>
        <mxCell id="mTHOiytMiAY_9Srzv-4_-108" value="" style="line;strokeWidth=1;fillColor=none;align=left;verticalAlign=middle;spacingTop=-1;spacingLeft=3;spacingRight=3;rotatable=0;labelPosition=right;points=[];portConstraint=eastwest;strokeColor=inherit;" parent="mTHOiytMiAY_9Srzv-4_-106" vertex="1">
          <mxGeometry y="78" width="210" height="8" as="geometry" />
        </mxCell>
        <mxCell id="mTHOiytMiAY_9Srzv-4_-109" value="# GetCondimentDescription(): string" style="text;strokeColor=none;fillColor=none;align=left;verticalAlign=top;spacingLeft=4;spacingRight=4;overflow=hidden;rotatable=0;points=[[0,0.5],[1,0.5]];portConstraint=eastwest;whiteSpace=wrap;html=1;" parent="mTHOiytMiAY_9Srzv-4_-106" vertex="1">
          <mxGeometry y="86" width="210" height="26" as="geometry" />
        </mxCell>
        <mxCell id="mTHOiytMiAY_9Srzv-4_-110" value="# GetCondimentCost(): double" style="text;strokeColor=none;fillColor=none;align=left;verticalAlign=top;spacingLeft=4;spacingRight=4;overflow=hidden;rotatable=0;points=[[0,0.5],[1,0.5]];portConstraint=eastwest;whiteSpace=wrap;html=1;" parent="mTHOiytMiAY_9Srzv-4_-106" vertex="1">
          <mxGeometry y="112" width="210" height="26" as="geometry" />
        </mxCell>
        <mxCell id="mTHOiytMiAY_9Srzv-4_-111" value="Extends" style="endArrow=block;endSize=16;endFill=0;html=1;rounded=0;" parent="WIyWlLk6GJQsqaUBKTNV-1" source="mTHOiytMiAY_9Srzv-4_-106" target="mTHOiytMiAY_9Srzv-4_-78" edge="1">
          <mxGeometry width="160" relative="1" as="geometry">
            <mxPoint x="1470" y="418" as="sourcePoint" />
            <mxPoint x="1330" y="422" as="targetPoint" />
          </mxGeometry>
        </mxCell>
        <mxCell id="mTHOiytMiAY_9Srzv-4_-113" value="Use" style="endArrow=open;endSize=12;dashed=1;html=1;rounded=0;" parent="WIyWlLk6GJQsqaUBKTNV-1" source="mTHOiytMiAY_9Srzv-4_-106" target="mTHOiytMiAY_9Srzv-4_-100" edge="1">
          <mxGeometry width="160" relative="1" as="geometry">
            <mxPoint x="1450" y="500" as="sourcePoint" />
            <mxPoint x="1610" y="500" as="targetPoint" />
          </mxGeometry>
        </mxCell>
        <mxCell id="mTHOiytMiAY_9Srzv-4_-114" value="&lt;span style=&quot;font-weight: 400;&quot;&gt;«enumaration»&amp;nbsp;SyrupType&lt;/span&gt;" style="swimlane;fontStyle=1;align=center;verticalAlign=top;childLayout=stackLayout;horizontal=1;startSize=26;horizontalStack=0;resizeParent=1;resizeParentMax=0;resizeLast=0;collapsible=1;marginBottom=0;whiteSpace=wrap;html=1;" parent="WIyWlLk6GJQsqaUBKTNV-1" vertex="1">
          <mxGeometry x="1740" y="624" width="190" height="86" as="geometry" />
        </mxCell>
        <mxCell id="mTHOiytMiAY_9Srzv-4_-115" value="+ Chocolate" style="text;strokeColor=none;fillColor=none;align=left;verticalAlign=top;spacingLeft=4;spacingRight=4;overflow=hidden;rotatable=0;points=[[0,0.5],[1,0.5]];portConstraint=eastwest;whiteSpace=wrap;html=1;" parent="mTHOiytMiAY_9Srzv-4_-114" vertex="1">
          <mxGeometry y="26" width="190" height="26" as="geometry" />
        </mxCell>
        <mxCell id="mTHOiytMiAY_9Srzv-4_-116" value="+ Maple" style="text;strokeColor=none;fillColor=none;align=left;verticalAlign=top;spacingLeft=4;spacingRight=4;overflow=hidden;rotatable=0;points=[[0,0.5],[1,0.5]];portConstraint=eastwest;whiteSpace=wrap;html=1;" parent="mTHOiytMiAY_9Srzv-4_-114" vertex="1">
          <mxGeometry y="52" width="190" height="26" as="geometry" />
        </mxCell>
        <mxCell id="mTHOiytMiAY_9Srzv-4_-117" value="" style="line;strokeWidth=1;fillColor=none;align=left;verticalAlign=middle;spacingTop=-1;spacingLeft=3;spacingRight=3;rotatable=0;labelPosition=right;points=[];portConstraint=eastwest;strokeColor=inherit;" parent="mTHOiytMiAY_9Srzv-4_-114" vertex="1">
          <mxGeometry y="78" width="190" height="8" as="geometry" />
        </mxCell>
        <mxCell id="mTHOiytMiAY_9Srzv-4_-118" value="Syrup" style="swimlane;fontStyle=1;align=center;verticalAlign=top;childLayout=stackLayout;horizontal=1;startSize=26;horizontalStack=0;resizeParent=1;resizeParentMax=0;resizeLast=0;collapsible=1;marginBottom=0;whiteSpace=wrap;html=1;" parent="WIyWlLk6GJQsqaUBKTNV-1" vertex="1">
          <mxGeometry x="1444" y="598" width="210" height="112" as="geometry" />
        </mxCell>
        <mxCell id="mTHOiytMiAY_9Srzv-4_-120" value="-&amp;nbsp;m_type&lt;span style=&quot;color: rgba(0, 0, 0, 0); font-family: monospace; font-size: 0px; text-wrap: nowrap;&quot;&gt;%3CmxGraphModel%3E%3Croot%3E%3CmxCell%20id%3D%220%22%2F%3E%3CmxCell%20id%3D%221%22%20parent%3D%220%22%2F%3E%3CmxCell%20id%3D%222%22%20value%3D%22%23%20GetCondimentDescription()%3A%20string%22%20style%3D%22text%3BstrokeColor%3Dnone%3BfillColor%3Dnone%3Balign%3Dleft%3BverticalAlign%3Dtop%3BspacingLeft%3D4%3BspacingRight%3D4%3Boverflow%3Dhidden%3Brotatable%3D0%3Bpoints%3D%5B%5B0%2C0.5%5D%2C%5B1%2C0.5%5D%5D%3BportConstraint%3Deastwest%3BwhiteSpace%3Dwrap%3Bhtml%3D1%3B%22%20vertex%3D%221%22%20parent%3D%221%22%3E%3CmxGeometry%20x%3D%221460%22%20y%3D%22384%22%20width%3D%22210%22%20height%3D%2226%22%20as%3D%22geometry%22%2F%3E%3C%2FmxCell%3E%3C%2Froot%3E%3C%2FmxGraphModel%3E&lt;/span&gt;&lt;font face=&quot;monospace&quot;&gt;&lt;font color=&quot;rgba(0, 0, 0, 0)&quot;&gt;&lt;span style=&quot;font-size: 0px; text-wrap: nowrap;&quot;&gt;m_quantit&lt;/span&gt;&lt;/font&gt;&lt;font color=&quot;#ba0000&quot;&gt;&lt;span style=&quot;font-size: 0px; text-wrap: nowrap;&quot;&gt;m_quantity&lt;/span&gt;&lt;/font&gt;&lt;font color=&quot;rgba(0, 0, 0, 0)&quot;&gt;&lt;span style=&quot;font-size: 0px; text-wrap: nowrap;&quot;&gt;y&lt;/span&gt;&lt;/font&gt;&lt;/font&gt;:&amp;nbsp;&lt;span style=&quot;text-align: center;&quot;&gt;SyrupType&lt;/span&gt;" style="text;strokeColor=none;fillColor=none;align=left;verticalAlign=top;spacingLeft=4;spacingRight=4;overflow=hidden;rotatable=0;points=[[0,0.5],[1,0.5]];portConstraint=eastwest;whiteSpace=wrap;html=1;" parent="mTHOiytMiAY_9Srzv-4_-118" vertex="1">
          <mxGeometry y="26" width="210" height="26" as="geometry" />
        </mxCell>
        <mxCell id="mTHOiytMiAY_9Srzv-4_-121" value="" style="line;strokeWidth=1;fillColor=none;align=left;verticalAlign=middle;spacingTop=-1;spacingLeft=3;spacingRight=3;rotatable=0;labelPosition=right;points=[];portConstraint=eastwest;strokeColor=inherit;" parent="mTHOiytMiAY_9Srzv-4_-118" vertex="1">
          <mxGeometry y="52" width="210" height="8" as="geometry" />
        </mxCell>
        <mxCell id="mTHOiytMiAY_9Srzv-4_-122" value="# GetCondimentDescription(): string" style="text;strokeColor=none;fillColor=none;align=left;verticalAlign=top;spacingLeft=4;spacingRight=4;overflow=hidden;rotatable=0;points=[[0,0.5],[1,0.5]];portConstraint=eastwest;whiteSpace=wrap;html=1;" parent="mTHOiytMiAY_9Srzv-4_-118" vertex="1">
          <mxGeometry y="60" width="210" height="26" as="geometry" />
        </mxCell>
        <mxCell id="mTHOiytMiAY_9Srzv-4_-123" value="# GetCondimentCost(): double" style="text;strokeColor=none;fillColor=none;align=left;verticalAlign=top;spacingLeft=4;spacingRight=4;overflow=hidden;rotatable=0;points=[[0,0.5],[1,0.5]];portConstraint=eastwest;whiteSpace=wrap;html=1;" parent="mTHOiytMiAY_9Srzv-4_-118" vertex="1">
          <mxGeometry y="86" width="210" height="26" as="geometry" />
        </mxCell>
        <mxCell id="mTHOiytMiAY_9Srzv-4_-124" value="Use" style="endArrow=open;endSize=12;dashed=1;html=1;rounded=0;" parent="WIyWlLk6GJQsqaUBKTNV-1" source="mTHOiytMiAY_9Srzv-4_-118" target="mTHOiytMiAY_9Srzv-4_-114" edge="1">
          <mxGeometry width="160" relative="1" as="geometry">
            <mxPoint x="1680" y="574" as="sourcePoint" />
            <mxPoint x="1780" y="574" as="targetPoint" />
          </mxGeometry>
        </mxCell>
        <mxCell id="mTHOiytMiAY_9Srzv-4_-125" value="Extends" style="endArrow=block;endSize=16;endFill=0;html=1;rounded=0;" parent="WIyWlLk6GJQsqaUBKTNV-1" source="mTHOiytMiAY_9Srzv-4_-118" target="mTHOiytMiAY_9Srzv-4_-78" edge="1">
          <mxGeometry width="160" relative="1" as="geometry">
            <mxPoint x="1470" y="530" as="sourcePoint" />
            <mxPoint x="1330" y="469" as="targetPoint" />
          </mxGeometry>
        </mxCell>
        <mxCell id="mTHOiytMiAY_9Srzv-4_-126" value="ChocolateCrumbs" style="swimlane;fontStyle=1;align=center;verticalAlign=top;childLayout=stackLayout;horizontal=1;startSize=26;horizontalStack=0;resizeParent=1;resizeParentMax=0;resizeLast=0;collapsible=1;marginBottom=0;whiteSpace=wrap;html=1;" parent="WIyWlLk6GJQsqaUBKTNV-1" vertex="1">
          <mxGeometry x="1385" y="910" width="210" height="112" as="geometry" />
        </mxCell>
        <mxCell id="mTHOiytMiAY_9Srzv-4_-127" value="-&amp;nbsp;m_mass&lt;span style=&quot;color: rgba(0, 0, 0, 0); font-family: monospace; font-size: 0px; text-wrap: nowrap;&quot;&gt;%3CmxGraphModel%3E%3Croot%3E%3CmxCell%20id%3D%220%22%2F%3E%3CmxCell%20id%3D%221%22%20parent%3D%220%22%2F%3E%3CmxCell%20id%3D%222%22%20value%3D%22%23%20GetCondimentDescription()%3A%20string%22%20style%3D%22text%3BstrokeColor%3Dnone%3BfillColor%3Dnone%3Balign%3Dleft%3BverticalAlign%3Dtop%3BspacingLeft%3D4%3BspacingRight%3D4%3Boverflow%3Dhidden%3Brotatable%3D0%3Bpoints%3D%5B%5B0%2C0.5%5D%2C%5B1%2C0.5%5D%5D%3BportConstraint%3Deastwest%3BwhiteSpace%3Dwrap%3Bhtml%3D1%3B%22%20vertex%3D%221%22%20parent%3D%221%22%3E%3CmxGeometry%20x%3D%221460%22%20y%3D%22384%22%20width%3D%22210%22%20height%3D%2226%22%20as%3D%22geometry%22%2F%3E%3C%2FmxCell%3E%3C%2Froot%3E%3C%2FmxGraphModel%3E&lt;/span&gt;&lt;font face=&quot;monospace&quot;&gt;&lt;font color=&quot;rgba(0, 0, 0, 0)&quot;&gt;&lt;span style=&quot;font-size: 0px; text-wrap: nowrap;&quot;&gt;m_quantit&lt;/span&gt;&lt;/font&gt;&lt;font color=&quot;#ba0000&quot;&gt;&lt;span style=&quot;font-size: 0px; text-wrap: nowrap;&quot;&gt;m_quantity&lt;/span&gt;&lt;/font&gt;&lt;font color=&quot;rgba(0, 0, 0, 0)&quot;&gt;&lt;span style=&quot;font-size: 0px; text-wrap: nowrap;&quot;&gt;y&lt;/span&gt;&lt;/font&gt;&lt;/font&gt;: unsigned int" style="text;strokeColor=none;fillColor=none;align=left;verticalAlign=top;spacingLeft=4;spacingRight=4;overflow=hidden;rotatable=0;points=[[0,0.5],[1,0.5]];portConstraint=eastwest;whiteSpace=wrap;html=1;" parent="mTHOiytMiAY_9Srzv-4_-126" vertex="1">
          <mxGeometry y="26" width="210" height="26" as="geometry" />
        </mxCell>
        <mxCell id="mTHOiytMiAY_9Srzv-4_-128" value="" style="line;strokeWidth=1;fillColor=none;align=left;verticalAlign=middle;spacingTop=-1;spacingLeft=3;spacingRight=3;rotatable=0;labelPosition=right;points=[];portConstraint=eastwest;strokeColor=inherit;" parent="mTHOiytMiAY_9Srzv-4_-126" vertex="1">
          <mxGeometry y="52" width="210" height="8" as="geometry" />
        </mxCell>
        <mxCell id="mTHOiytMiAY_9Srzv-4_-129" value="# GetCondimentDescription(): string" style="text;strokeColor=none;fillColor=none;align=left;verticalAlign=top;spacingLeft=4;spacingRight=4;overflow=hidden;rotatable=0;points=[[0,0.5],[1,0.5]];portConstraint=eastwest;whiteSpace=wrap;html=1;" parent="mTHOiytMiAY_9Srzv-4_-126" vertex="1">
          <mxGeometry y="60" width="210" height="26" as="geometry" />
        </mxCell>
        <mxCell id="mTHOiytMiAY_9Srzv-4_-130" value="# GetCondimentCost(): double" style="text;strokeColor=none;fillColor=none;align=left;verticalAlign=top;spacingLeft=4;spacingRight=4;overflow=hidden;rotatable=0;points=[[0,0.5],[1,0.5]];portConstraint=eastwest;whiteSpace=wrap;html=1;" parent="mTHOiytMiAY_9Srzv-4_-126" vertex="1">
          <mxGeometry y="86" width="210" height="26" as="geometry" />
        </mxCell>
        <mxCell id="mTHOiytMiAY_9Srzv-4_-131" value="Extends" style="endArrow=block;endSize=16;endFill=0;html=1;rounded=0;" parent="WIyWlLk6GJQsqaUBKTNV-1" source="mTHOiytMiAY_9Srzv-4_-126" target="mTHOiytMiAY_9Srzv-4_-78" edge="1">
          <mxGeometry width="160" relative="1" as="geometry">
            <mxPoint x="1391.1235955056177" y="823.9999999999998" as="sourcePoint" />
            <mxPoint x="1230" y="346" as="targetPoint" />
            <Array as="points">
              <mxPoint x="1410" y="770" />
            </Array>
          </mxGeometry>
        </mxCell>
        <mxCell id="mTHOiytMiAY_9Srzv-4_-132" value="CoconutFlakes" style="swimlane;fontStyle=1;align=center;verticalAlign=top;childLayout=stackLayout;horizontal=1;startSize=26;horizontalStack=0;resizeParent=1;resizeParentMax=0;resizeLast=0;collapsible=1;marginBottom=0;whiteSpace=wrap;html=1;" parent="WIyWlLk6GJQsqaUBKTNV-1" vertex="1">
          <mxGeometry x="1190" y="770" width="210" height="112" as="geometry" />
        </mxCell>
        <mxCell id="mTHOiytMiAY_9Srzv-4_-133" value="-&amp;nbsp;m_mass&lt;span style=&quot;color: rgba(0, 0, 0, 0); font-family: monospace; font-size: 0px; text-wrap: nowrap;&quot;&gt;%3CmxGraphModel%3E%3Croot%3E%3CmxCell%20id%3D%220%22%2F%3E%3CmxCell%20id%3D%221%22%20parent%3D%220%22%2F%3E%3CmxCell%20id%3D%222%22%20value%3D%22%23%20GetCondimentDescription()%3A%20string%22%20style%3D%22text%3BstrokeColor%3Dnone%3BfillColor%3Dnone%3Balign%3Dleft%3BverticalAlign%3Dtop%3BspacingLeft%3D4%3BspacingRight%3D4%3Boverflow%3Dhidden%3Brotatable%3D0%3Bpoints%3D%5B%5B0%2C0.5%5D%2C%5B1%2C0.5%5D%5D%3BportConstraint%3Deastwest%3BwhiteSpace%3Dwrap%3Bhtml%3D1%3B%22%20vertex%3D%221%22%20parent%3D%221%22%3E%3CmxGeometry%20x%3D%221460%22%20y%3D%22384%22%20width%3D%22210%22%20height%3D%2226%22%20as%3D%22geometry%22%2F%3E%3C%2FmxCell%3E%3C%2Froot%3E%3C%2FmxGraphModel%3E&lt;/span&gt;&lt;font face=&quot;monospace&quot;&gt;&lt;font color=&quot;rgba(0, 0, 0, 0)&quot;&gt;&lt;span style=&quot;font-size: 0px; text-wrap: nowrap;&quot;&gt;m_quantit&lt;/span&gt;&lt;/font&gt;&lt;font color=&quot;#ba0000&quot;&gt;&lt;span style=&quot;font-size: 0px; text-wrap: nowrap;&quot;&gt;m_quantity&lt;/span&gt;&lt;/font&gt;&lt;font color=&quot;rgba(0, 0, 0, 0)&quot;&gt;&lt;span style=&quot;font-size: 0px; text-wrap: nowrap;&quot;&gt;y&lt;/span&gt;&lt;/font&gt;&lt;/font&gt;: unsigned int" style="text;strokeColor=none;fillColor=none;align=left;verticalAlign=top;spacingLeft=4;spacingRight=4;overflow=hidden;rotatable=0;points=[[0,0.5],[1,0.5]];portConstraint=eastwest;whiteSpace=wrap;html=1;" parent="mTHOiytMiAY_9Srzv-4_-132" vertex="1">
          <mxGeometry y="26" width="210" height="26" as="geometry" />
        </mxCell>
        <mxCell id="mTHOiytMiAY_9Srzv-4_-134" value="" style="line;strokeWidth=1;fillColor=none;align=left;verticalAlign=middle;spacingTop=-1;spacingLeft=3;spacingRight=3;rotatable=0;labelPosition=right;points=[];portConstraint=eastwest;strokeColor=inherit;" parent="mTHOiytMiAY_9Srzv-4_-132" vertex="1">
          <mxGeometry y="52" width="210" height="8" as="geometry" />
        </mxCell>
        <mxCell id="mTHOiytMiAY_9Srzv-4_-135" value="# GetCondimentDescription(): string" style="text;strokeColor=none;fillColor=none;align=left;verticalAlign=top;spacingLeft=4;spacingRight=4;overflow=hidden;rotatable=0;points=[[0,0.5],[1,0.5]];portConstraint=eastwest;whiteSpace=wrap;html=1;" parent="mTHOiytMiAY_9Srzv-4_-132" vertex="1">
          <mxGeometry y="60" width="210" height="26" as="geometry" />
        </mxCell>
        <mxCell id="mTHOiytMiAY_9Srzv-4_-136" value="# GetCondimentCost(): double" style="text;strokeColor=none;fillColor=none;align=left;verticalAlign=top;spacingLeft=4;spacingRight=4;overflow=hidden;rotatable=0;points=[[0,0.5],[1,0.5]];portConstraint=eastwest;whiteSpace=wrap;html=1;" parent="mTHOiytMiAY_9Srzv-4_-132" vertex="1">
          <mxGeometry y="86" width="210" height="26" as="geometry" />
        </mxCell>
        <mxCell id="mTHOiytMiAY_9Srzv-4_-137" value="Extends" style="endArrow=block;endSize=16;endFill=0;html=1;rounded=0;" parent="WIyWlLk6GJQsqaUBKTNV-1" source="mTHOiytMiAY_9Srzv-4_-132" target="mTHOiytMiAY_9Srzv-4_-78" edge="1">
          <mxGeometry width="160" relative="1" as="geometry">
            <mxPoint x="1446" y="740" as="sourcePoint" />
            <mxPoint x="1282" y="506" as="targetPoint" />
          </mxGeometry>
        </mxCell>
        <mxCell id="mTHOiytMiAY_9Srzv-4_-138" value="Cream" style="swimlane;fontStyle=1;align=center;verticalAlign=top;childLayout=stackLayout;horizontal=1;startSize=26;horizontalStack=0;resizeParent=1;resizeParentMax=0;resizeLast=0;collapsible=1;marginBottom=0;whiteSpace=wrap;html=1;" parent="WIyWlLk6GJQsqaUBKTNV-1" vertex="1">
          <mxGeometry x="1150" y="180" width="210" height="86" as="geometry" />
        </mxCell>
        <mxCell id="mTHOiytMiAY_9Srzv-4_-139" value="" style="line;strokeWidth=1;fillColor=none;align=left;verticalAlign=middle;spacingTop=-1;spacingLeft=3;spacingRight=3;rotatable=0;labelPosition=right;points=[];portConstraint=eastwest;strokeColor=inherit;" parent="mTHOiytMiAY_9Srzv-4_-138" vertex="1">
          <mxGeometry y="26" width="210" height="8" as="geometry" />
        </mxCell>
        <mxCell id="mTHOiytMiAY_9Srzv-4_-140" value="# GetCondimentDescription(): string" style="text;strokeColor=none;fillColor=none;align=left;verticalAlign=top;spacingLeft=4;spacingRight=4;overflow=hidden;rotatable=0;points=[[0,0.5],[1,0.5]];portConstraint=eastwest;whiteSpace=wrap;html=1;" parent="mTHOiytMiAY_9Srzv-4_-138" vertex="1">
          <mxGeometry y="34" width="210" height="26" as="geometry" />
        </mxCell>
        <mxCell id="mTHOiytMiAY_9Srzv-4_-141" value="# GetCondimentCost(): double" style="text;strokeColor=none;fillColor=none;align=left;verticalAlign=top;spacingLeft=4;spacingRight=4;overflow=hidden;rotatable=0;points=[[0,0.5],[1,0.5]];portConstraint=eastwest;whiteSpace=wrap;html=1;" parent="mTHOiytMiAY_9Srzv-4_-138" vertex="1">
          <mxGeometry y="60" width="210" height="26" as="geometry" />
        </mxCell>
        <mxCell id="mTHOiytMiAY_9Srzv-4_-142" value="Extends" style="endArrow=block;endSize=16;endFill=0;html=1;rounded=0;" parent="WIyWlLk6GJQsqaUBKTNV-1" source="mTHOiytMiAY_9Srzv-4_-138" target="mTHOiytMiAY_9Srzv-4_-78" edge="1">
          <mxGeometry width="160" relative="1" as="geometry">
            <mxPoint x="1450" y="296" as="sourcePoint" />
            <mxPoint x="1330" y="364" as="targetPoint" />
          </mxGeometry>
        </mxCell>
        <mxCell id="mTHOiytMiAY_9Srzv-4_-143" value="Chocolate" style="swimlane;fontStyle=1;align=center;verticalAlign=top;childLayout=stackLayout;horizontal=1;startSize=26;horizontalStack=0;resizeParent=1;resizeParentMax=0;resizeLast=0;collapsible=1;marginBottom=0;whiteSpace=wrap;html=1;" parent="WIyWlLk6GJQsqaUBKTNV-1" vertex="1">
          <mxGeometry x="1031" y="624" width="210" height="112" as="geometry" />
        </mxCell>
        <mxCell id="mTHOiytMiAY_9Srzv-4_-144" value="-&amp;nbsp;m_count&lt;span style=&quot;color: rgba(0, 0, 0, 0); font-family: monospace; font-size: 0px; text-wrap: nowrap;&quot;&gt;%3CmxGraphModel%3E%3Croot%3E%3CmxCell%20id%3D%220%22%2F%3E%3CmxCell%20id%3D%221%22%20parent%3D%220%22%2F%3E%3CmxCell%20id%3D%222%22%20value%3D%22%23%20GetCondimentDescription()%3A%20string%22%20style%3D%22text%3BstrokeColor%3Dnone%3BfillColor%3Dnone%3Balign%3Dleft%3BverticalAlign%3Dtop%3BspacingLeft%3D4%3BspacingRight%3D4%3Boverflow%3Dhidden%3Brotatable%3D0%3Bpoints%3D%5B%5B0%2C0.5%5D%2C%5B1%2C0.5%5D%5D%3BportConstraint%3Deastwest%3BwhiteSpace%3Dwrap%3Bhtml%3D1%3B%22%20vertex%3D%221%22%20parent%3D%221%22%3E%3CmxGeometry%20x%3D%221460%22%20y%3D%22384%22%20width%3D%22210%22%20height%3D%2226%22%20as%3D%22geometry%22%2F%3E%3C%2FmxCell%3E%3C%2Froot%3E%3C%2FmxGraphModel%3E&lt;/span&gt;&lt;font face=&quot;monospace&quot;&gt;&lt;font color=&quot;rgba(0, 0, 0, 0)&quot;&gt;&lt;span style=&quot;font-size: 0px; text-wrap: nowrap;&quot;&gt;m_quantit&lt;/span&gt;&lt;/font&gt;&lt;font color=&quot;#ba0000&quot;&gt;&lt;span style=&quot;font-size: 0px; text-wrap: nowrap;&quot;&gt;m_quantity&lt;/span&gt;&lt;/font&gt;&lt;font color=&quot;rgba(0, 0, 0, 0)&quot;&gt;&lt;span style=&quot;font-size: 0px; text-wrap: nowrap;&quot;&gt;y&lt;/span&gt;&lt;/font&gt;&lt;/font&gt;: unsigned int" style="text;strokeColor=none;fillColor=none;align=left;verticalAlign=top;spacingLeft=4;spacingRight=4;overflow=hidden;rotatable=0;points=[[0,0.5],[1,0.5]];portConstraint=eastwest;whiteSpace=wrap;html=1;" parent="mTHOiytMiAY_9Srzv-4_-143" vertex="1">
          <mxGeometry y="26" width="210" height="26" as="geometry" />
        </mxCell>
        <mxCell id="mTHOiytMiAY_9Srzv-4_-145" value="" style="line;strokeWidth=1;fillColor=none;align=left;verticalAlign=middle;spacingTop=-1;spacingLeft=3;spacingRight=3;rotatable=0;labelPosition=right;points=[];portConstraint=eastwest;strokeColor=inherit;" parent="mTHOiytMiAY_9Srzv-4_-143" vertex="1">
          <mxGeometry y="52" width="210" height="8" as="geometry" />
        </mxCell>
        <mxCell id="mTHOiytMiAY_9Srzv-4_-146" value="# GetCondimentDescription(): string" style="text;strokeColor=none;fillColor=none;align=left;verticalAlign=top;spacingLeft=4;spacingRight=4;overflow=hidden;rotatable=0;points=[[0,0.5],[1,0.5]];portConstraint=eastwest;whiteSpace=wrap;html=1;" parent="mTHOiytMiAY_9Srzv-4_-143" vertex="1">
          <mxGeometry y="60" width="210" height="26" as="geometry" />
        </mxCell>
        <mxCell id="mTHOiytMiAY_9Srzv-4_-147" value="# GetCondimentCost(): double" style="text;strokeColor=none;fillColor=none;align=left;verticalAlign=top;spacingLeft=4;spacingRight=4;overflow=hidden;rotatable=0;points=[[0,0.5],[1,0.5]];portConstraint=eastwest;whiteSpace=wrap;html=1;" parent="mTHOiytMiAY_9Srzv-4_-143" vertex="1">
          <mxGeometry y="86" width="210" height="26" as="geometry" />
        </mxCell>
        <mxCell id="mTHOiytMiAY_9Srzv-4_-148" value="Extends" style="endArrow=block;endSize=16;endFill=0;html=1;rounded=0;" parent="WIyWlLk6GJQsqaUBKTNV-1" source="mTHOiytMiAY_9Srzv-4_-143" target="mTHOiytMiAY_9Srzv-4_-78" edge="1">
          <mxGeometry width="160" relative="1" as="geometry">
            <mxPoint x="1376" y="870" as="sourcePoint" />
            <mxPoint x="1253" y="506" as="targetPoint" />
          </mxGeometry>
        </mxCell>
        <mxCell id="mTHOiytMiAY_9Srzv-4_-149" value="&lt;span style=&quot;font-weight: 400;&quot;&gt;«enumaration»&amp;nbsp;LiquorType&lt;/span&gt;" style="swimlane;fontStyle=1;align=center;verticalAlign=top;childLayout=stackLayout;horizontal=1;startSize=26;horizontalStack=0;resizeParent=1;resizeParentMax=0;resizeLast=0;collapsible=1;marginBottom=0;whiteSpace=wrap;html=1;" parent="WIyWlLk6GJQsqaUBKTNV-1" vertex="1">
          <mxGeometry x="1740" y="766" width="190" height="86" as="geometry" />
        </mxCell>
        <mxCell id="mTHOiytMiAY_9Srzv-4_-150" value="+ Chocolate" style="text;strokeColor=none;fillColor=none;align=left;verticalAlign=top;spacingLeft=4;spacingRight=4;overflow=hidden;rotatable=0;points=[[0,0.5],[1,0.5]];portConstraint=eastwest;whiteSpace=wrap;html=1;" parent="mTHOiytMiAY_9Srzv-4_-149" vertex="1">
          <mxGeometry y="26" width="190" height="26" as="geometry" />
        </mxCell>
        <mxCell id="mTHOiytMiAY_9Srzv-4_-151" value="+ Nutty" style="text;strokeColor=none;fillColor=none;align=left;verticalAlign=top;spacingLeft=4;spacingRight=4;overflow=hidden;rotatable=0;points=[[0,0.5],[1,0.5]];portConstraint=eastwest;whiteSpace=wrap;html=1;" parent="mTHOiytMiAY_9Srzv-4_-149" vertex="1">
          <mxGeometry y="52" width="190" height="26" as="geometry" />
        </mxCell>
        <mxCell id="mTHOiytMiAY_9Srzv-4_-152" value="" style="line;strokeWidth=1;fillColor=none;align=left;verticalAlign=middle;spacingTop=-1;spacingLeft=3;spacingRight=3;rotatable=0;labelPosition=right;points=[];portConstraint=eastwest;strokeColor=inherit;" parent="mTHOiytMiAY_9Srzv-4_-149" vertex="1">
          <mxGeometry y="78" width="190" height="8" as="geometry" />
        </mxCell>
        <mxCell id="mTHOiytMiAY_9Srzv-4_-153" value="Liquor" style="swimlane;fontStyle=1;align=center;verticalAlign=top;childLayout=stackLayout;horizontal=1;startSize=26;horizontalStack=0;resizeParent=1;resizeParentMax=0;resizeLast=0;collapsible=1;marginBottom=0;whiteSpace=wrap;html=1;" parent="WIyWlLk6GJQsqaUBKTNV-1" vertex="1">
          <mxGeometry x="1444" y="740" width="210" height="112" as="geometry" />
        </mxCell>
        <mxCell id="mTHOiytMiAY_9Srzv-4_-154" value="-&amp;nbsp;m_type&lt;span style=&quot;color: rgba(0, 0, 0, 0); font-family: monospace; font-size: 0px; text-wrap: nowrap;&quot;&gt;%3CmxGraphModel%3E%3Croot%3E%3CmxCell%20id%3D%220%22%2F%3E%3CmxCell%20id%3D%221%22%20parent%3D%220%22%2F%3E%3CmxCell%20id%3D%222%22%20value%3D%22%23%20GetCondimentDescription()%3A%20string%22%20style%3D%22text%3BstrokeColor%3Dnone%3BfillColor%3Dnone%3Balign%3Dleft%3BverticalAlign%3Dtop%3BspacingLeft%3D4%3BspacingRight%3D4%3Boverflow%3Dhidden%3Brotatable%3D0%3Bpoints%3D%5B%5B0%2C0.5%5D%2C%5B1%2C0.5%5D%5D%3BportConstraint%3Deastwest%3BwhiteSpace%3Dwrap%3Bhtml%3D1%3B%22%20vertex%3D%221%22%20parent%3D%221%22%3E%3CmxGeometry%20x%3D%221460%22%20y%3D%22384%22%20width%3D%22210%22%20height%3D%2226%22%20as%3D%22geometry%22%2F%3E%3C%2FmxCell%3E%3C%2Froot%3E%3C%2FmxGraphModel%3E&lt;/span&gt;&lt;font face=&quot;monospace&quot;&gt;&lt;font color=&quot;rgba(0, 0, 0, 0)&quot;&gt;&lt;span style=&quot;font-size: 0px; text-wrap: nowrap;&quot;&gt;m_quantit&lt;/span&gt;&lt;/font&gt;&lt;font color=&quot;#ba0000&quot;&gt;&lt;span style=&quot;font-size: 0px; text-wrap: nowrap;&quot;&gt;m_quantity&lt;/span&gt;&lt;/font&gt;&lt;font color=&quot;rgba(0, 0, 0, 0)&quot;&gt;&lt;span style=&quot;font-size: 0px; text-wrap: nowrap;&quot;&gt;y&lt;/span&gt;&lt;/font&gt;&lt;/font&gt;:&amp;nbsp;&lt;span style=&quot;text-align: center;&quot;&gt;LiquorType&lt;/span&gt;" style="text;strokeColor=none;fillColor=none;align=left;verticalAlign=top;spacingLeft=4;spacingRight=4;overflow=hidden;rotatable=0;points=[[0,0.5],[1,0.5]];portConstraint=eastwest;whiteSpace=wrap;html=1;" parent="mTHOiytMiAY_9Srzv-4_-153" vertex="1">
          <mxGeometry y="26" width="210" height="26" as="geometry" />
        </mxCell>
        <mxCell id="mTHOiytMiAY_9Srzv-4_-155" value="" style="line;strokeWidth=1;fillColor=none;align=left;verticalAlign=middle;spacingTop=-1;spacingLeft=3;spacingRight=3;rotatable=0;labelPosition=right;points=[];portConstraint=eastwest;strokeColor=inherit;" parent="mTHOiytMiAY_9Srzv-4_-153" vertex="1">
          <mxGeometry y="52" width="210" height="8" as="geometry" />
        </mxCell>
        <mxCell id="mTHOiytMiAY_9Srzv-4_-156" value="# GetCondimentDescription(): string" style="text;strokeColor=none;fillColor=none;align=left;verticalAlign=top;spacingLeft=4;spacingRight=4;overflow=hidden;rotatable=0;points=[[0,0.5],[1,0.5]];portConstraint=eastwest;whiteSpace=wrap;html=1;" parent="mTHOiytMiAY_9Srzv-4_-153" vertex="1">
          <mxGeometry y="60" width="210" height="26" as="geometry" />
        </mxCell>
        <mxCell id="mTHOiytMiAY_9Srzv-4_-157" value="# GetCondimentCost(): double" style="text;strokeColor=none;fillColor=none;align=left;verticalAlign=top;spacingLeft=4;spacingRight=4;overflow=hidden;rotatable=0;points=[[0,0.5],[1,0.5]];portConstraint=eastwest;whiteSpace=wrap;html=1;" parent="mTHOiytMiAY_9Srzv-4_-153" vertex="1">
          <mxGeometry y="86" width="210" height="26" as="geometry" />
        </mxCell>
        <mxCell id="mTHOiytMiAY_9Srzv-4_-158" value="Use" style="endArrow=open;endSize=12;dashed=1;html=1;rounded=0;" parent="WIyWlLk6GJQsqaUBKTNV-1" source="mTHOiytMiAY_9Srzv-4_-153" target="mTHOiytMiAY_9Srzv-4_-149" edge="1">
          <mxGeometry width="160" relative="1" as="geometry">
            <mxPoint x="1664" y="669" as="sourcePoint" />
            <mxPoint x="1750" y="673" as="targetPoint" />
          </mxGeometry>
        </mxCell>
        <mxCell id="mTHOiytMiAY_9Srzv-4_-159" value="Extends" style="endArrow=block;endSize=16;endFill=0;html=1;rounded=0;" parent="WIyWlLk6GJQsqaUBKTNV-1" source="mTHOiytMiAY_9Srzv-4_-153" target="mTHOiytMiAY_9Srzv-4_-78" edge="1">
          <mxGeometry width="160" relative="1" as="geometry">
            <mxPoint x="1472" y="920" as="sourcePoint" />
            <mxPoint x="1266" y="506" as="targetPoint" />
            <Array as="points">
              <mxPoint x="1440" y="730" />
            </Array>
          </mxGeometry>
        </mxCell>
        <mxCell id="mTHOiytMiAY_9Srzv-4_-160" value="" style="endArrow=none;endFill=0;endSize=24;html=1;rounded=0;dashed=1;startArrow=open;startFill=0;" parent="WIyWlLk6GJQsqaUBKTNV-1" source="mTHOiytMiAY_9Srzv-4_-39" target="mTHOiytMiAY_9Srzv-4_-1" edge="1">
          <mxGeometry width="160" relative="1" as="geometry">
            <mxPoint x="90" y="390" as="sourcePoint" />
            <mxPoint x="250" y="390" as="targetPoint" />
            <Array as="points">
              <mxPoint y="360" />
            </Array>
          </mxGeometry>
        </mxCell>
        <mxCell id="mTHOiytMiAY_9Srzv-4_-161" value="" style="endArrow=none;endFill=0;endSize=24;html=1;rounded=0;startArrow=open;startFill=0;dashed=1;" parent="WIyWlLk6GJQsqaUBKTNV-1" source="mTHOiytMiAY_9Srzv-4_-44" target="mTHOiytMiAY_9Srzv-4_-1" edge="1">
          <mxGeometry width="160" relative="1" as="geometry">
            <mxPoint x="-10" y="420" as="sourcePoint" />
            <mxPoint x="160" y="114" as="targetPoint" />
            <Array as="points">
              <mxPoint x="-340" y="550" />
              <mxPoint x="-340" y="360" />
              <mxPoint x="-10" y="360" />
            </Array>
          </mxGeometry>
        </mxCell>
        <mxCell id="mTHOiytMiAY_9Srzv-4_-162" value="" style="endArrow=none;endFill=0;endSize=24;html=1;rounded=0;dashed=1;startArrow=open;startFill=0;" parent="WIyWlLk6GJQsqaUBKTNV-1" source="mTHOiytMiAY_9Srzv-4_-48" target="mTHOiytMiAY_9Srzv-4_-1" edge="1">
          <mxGeometry width="160" relative="1" as="geometry">
            <mxPoint x="-278" y="536" as="sourcePoint" />
            <mxPoint x="160" y="90" as="targetPoint" />
            <Array as="points">
              <mxPoint x="-350" y="620" />
              <mxPoint x="-350" y="350" />
              <mxPoint x="-10" y="350" />
            </Array>
          </mxGeometry>
        </mxCell>
        <mxCell id="mTHOiytMiAY_9Srzv-4_-163" value="" style="endArrow=none;endFill=0;endSize=24;html=1;rounded=0;startArrow=open;startFill=0;dashed=1;" parent="WIyWlLk6GJQsqaUBKTNV-1" source="mTHOiytMiAY_9Srzv-4_-51" target="mTHOiytMiAY_9Srzv-4_-1" edge="1">
          <mxGeometry width="160" relative="1" as="geometry">
            <mxPoint x="-378" y="590" as="sourcePoint" />
            <mxPoint x="60" y="74" as="targetPoint" />
            <Array as="points">
              <mxPoint x="-360" y="690" />
              <mxPoint x="-360" y="340" />
              <mxPoint x="-10" y="340" />
            </Array>
          </mxGeometry>
        </mxCell>
        <mxCell id="mTHOiytMiAY_9Srzv-4_-164" value="" style="endArrow=none;endFill=0;html=1;rounded=0;dashed=1;startArrow=open;startFill=0;" parent="WIyWlLk6GJQsqaUBKTNV-1" source="mTHOiytMiAY_9Srzv-4_-54" target="mTHOiytMiAY_9Srzv-4_-1" edge="1">
          <mxGeometry width="160" relative="1" as="geometry">
            <mxPoint x="-337" y="666" as="sourcePoint" />
            <mxPoint x="100" y="80" as="targetPoint" />
            <Array as="points">
              <mxPoint x="-370" y="760" />
              <mxPoint x="-370" y="330" />
              <mxPoint x="-10" y="330" />
            </Array>
          </mxGeometry>
        </mxCell>
        <mxCell id="mTHOiytMiAY_9Srzv-4_-165" value="" style="endArrow=none;endFill=0;endSize=24;html=1;rounded=0;dashed=1;startArrow=open;startFill=0;" parent="WIyWlLk6GJQsqaUBKTNV-1" source="mTHOiytMiAY_9Srzv-4_-11" target="mTHOiytMiAY_9Srzv-4_-1" edge="1">
          <mxGeometry width="160" relative="1" as="geometry">
            <mxPoint x="-220" y="852" as="sourcePoint" />
            <mxPoint x="217" y="196" as="targetPoint" />
            <Array as="points">
              <mxPoint x="160" y="463" />
              <mxPoint x="160" y="280" />
            </Array>
          </mxGeometry>
        </mxCell>
        <mxCell id="mTHOiytMiAY_9Srzv-4_-166" value="" style="endArrow=none;endFill=0;endSize=24;html=1;rounded=0;startArrow=open;startFill=0;dashed=1;" parent="WIyWlLk6GJQsqaUBKTNV-1" source="mTHOiytMiAY_9Srzv-4_-28" target="mTHOiytMiAY_9Srzv-4_-1" edge="1">
          <mxGeometry width="160" relative="1" as="geometry">
            <mxPoint x="240" y="519" as="sourcePoint" />
            <mxPoint x="138" y="160" as="targetPoint" />
            <Array as="points">
              <mxPoint x="150" y="603" />
              <mxPoint x="150" y="280" />
            </Array>
          </mxGeometry>
        </mxCell>
        <mxCell id="mTHOiytMiAY_9Srzv-4_-167" value="" style="endArrow=none;endFill=0;endSize=24;html=1;rounded=0;dashed=1;startArrow=open;startFill=0;" parent="WIyWlLk6GJQsqaUBKTNV-1" source="mTHOiytMiAY_9Srzv-4_-18" target="mTHOiytMiAY_9Srzv-4_-1" edge="1">
          <mxGeometry width="160" relative="1" as="geometry">
            <mxPoint x="200" y="613" as="sourcePoint" />
            <mxPoint x="187" y="114" as="targetPoint" />
            <Array as="points">
              <mxPoint x="370" y="690" />
              <mxPoint x="140" y="690" />
              <mxPoint x="140" y="280" />
            </Array>
          </mxGeometry>
        </mxCell>
        <mxCell id="mTHOiytMiAY_9Srzv-4_-170" value="" style="endArrow=diamondThin;endFill=1;endSize=24;html=1;rounded=0;" parent="WIyWlLk6GJQsqaUBKTNV-1" source="mTHOiytMiAY_9Srzv-4_-62" target="mTHOiytMiAY_9Srzv-4_-1" edge="1">
          <mxGeometry width="160" relative="1" as="geometry">
            <mxPoint x="782" y="610" as="sourcePoint" />
            <mxPoint x="556" y="68" as="targetPoint" />
            <Array as="points">
              <mxPoint x="620" y="463" />
              <mxPoint x="620" y="200" />
            </Array>
          </mxGeometry>
        </mxCell>
        <mxCell id="mTHOiytMiAY_9Srzv-4_-171" value="" style="endArrow=diamondThin;endFill=1;endSize=24;html=1;rounded=0;" parent="WIyWlLk6GJQsqaUBKTNV-1" source="mTHOiytMiAY_9Srzv-4_-66" target="mTHOiytMiAY_9Srzv-4_-1" edge="1">
          <mxGeometry width="160" relative="1" as="geometry">
            <mxPoint x="685" y="506" as="sourcePoint" />
            <mxPoint x="244" y="147" as="targetPoint" />
            <Array as="points">
              <mxPoint x="610" y="613" />
              <mxPoint x="610" y="210" />
            </Array>
          </mxGeometry>
        </mxCell>
        <mxCell id="mTHOiytMiAY_9Srzv-4_-172" value="" style="endArrow=diamondThin;endFill=1;endSize=24;html=1;rounded=0;" parent="WIyWlLk6GJQsqaUBKTNV-1" source="mTHOiytMiAY_9Srzv-4_-70" target="mTHOiytMiAY_9Srzv-4_-1" edge="1">
          <mxGeometry width="160" relative="1" as="geometry">
            <mxPoint x="676" y="624" as="sourcePoint" />
            <mxPoint x="230" y="115" as="targetPoint" />
            <Array as="points">
              <mxPoint x="600" y="723" />
              <mxPoint x="600" y="220" />
            </Array>
          </mxGeometry>
        </mxCell>
        <mxCell id="mTHOiytMiAY_9Srzv-4_-173" value="" style="endArrow=diamondThin;endFill=1;endSize=24;html=1;rounded=0;" parent="WIyWlLk6GJQsqaUBKTNV-1" source="mTHOiytMiAY_9Srzv-4_-138" target="mTHOiytMiAY_9Srzv-4_-1" edge="1">
          <mxGeometry width="160" relative="1" as="geometry">
            <mxPoint x="926" y="539" as="sourcePoint" />
            <mxPoint x="480" y="30" as="targetPoint" />
            <Array as="points">
              <mxPoint x="1255" y="140" />
              <mxPoint x="1000" y="140" />
            </Array>
          </mxGeometry>
        </mxCell>
        <mxCell id="mTHOiytMiAY_9Srzv-4_-174" value="" style="endArrow=diamondThin;endFill=1;endSize=24;html=1;rounded=0;" parent="WIyWlLk6GJQsqaUBKTNV-1" source="mTHOiytMiAY_9Srzv-4_-87" target="mTHOiytMiAY_9Srzv-4_-1" edge="1">
          <mxGeometry width="160" relative="1" as="geometry">
            <mxPoint x="1275" y="160" as="sourcePoint" />
            <mxPoint x="280" y="72" as="targetPoint" />
            <Array as="points">
              <mxPoint x="1515" y="130" />
              <mxPoint x="1000" y="130" />
            </Array>
          </mxGeometry>
        </mxCell>
        <mxCell id="mTHOiytMiAY_9Srzv-4_-175" value="" style="endArrow=diamondThin;endFill=1;endSize=24;html=1;rounded=0;" parent="WIyWlLk6GJQsqaUBKTNV-1" source="mTHOiytMiAY_9Srzv-4_-95" target="mTHOiytMiAY_9Srzv-4_-1" edge="1">
          <mxGeometry width="160" relative="1" as="geometry">
            <mxPoint x="1275" y="200" as="sourcePoint" />
            <mxPoint x="280" y="112" as="targetPoint" />
            <Array as="points">
              <mxPoint x="1680" y="350" />
              <mxPoint x="1680" y="120" />
              <mxPoint x="1000" y="120" />
            </Array>
          </mxGeometry>
        </mxCell>
        <mxCell id="mTHOiytMiAY_9Srzv-4_-176" value="" style="endArrow=diamondThin;endFill=1;endSize=24;html=1;rounded=0;" parent="WIyWlLk6GJQsqaUBKTNV-1" source="mTHOiytMiAY_9Srzv-4_-106" target="mTHOiytMiAY_9Srzv-4_-1" edge="1">
          <mxGeometry width="160" relative="1" as="geometry">
            <mxPoint x="1694" y="313" as="sourcePoint" />
            <mxPoint x="300" y="50" as="targetPoint" />
            <Array as="points">
              <mxPoint x="1740" y="450" />
              <mxPoint x="2040" y="450" />
              <mxPoint x="2040" y="110" />
              <mxPoint x="1000" y="110" />
            </Array>
          </mxGeometry>
        </mxCell>
        <mxCell id="mTHOiytMiAY_9Srzv-4_-177" value="" style="endArrow=diamondThin;endFill=1;endSize=24;html=1;rounded=0;" parent="WIyWlLk6GJQsqaUBKTNV-1" source="mTHOiytMiAY_9Srzv-4_-118" target="mTHOiytMiAY_9Srzv-4_-1" edge="1">
          <mxGeometry width="160" relative="1" as="geometry">
            <mxPoint x="1664" y="487" as="sourcePoint" />
            <mxPoint x="270" y="99" as="targetPoint" />
            <Array as="points">
              <mxPoint x="1740" y="610" />
              <mxPoint x="2050" y="610" />
              <mxPoint x="2050" y="100" />
              <mxPoint x="1000" y="100" />
            </Array>
          </mxGeometry>
        </mxCell>
        <mxCell id="mTHOiytMiAY_9Srzv-4_-178" value="" style="endArrow=diamondThin;endFill=1;endSize=24;html=1;rounded=0;" parent="WIyWlLk6GJQsqaUBKTNV-1" source="mTHOiytMiAY_9Srzv-4_-153" target="mTHOiytMiAY_9Srzv-4_-1" edge="1">
          <mxGeometry width="160" relative="1" as="geometry">
            <mxPoint x="1664" y="640" as="sourcePoint" />
            <mxPoint x="270" y="98" as="targetPoint" />
            <Array as="points">
              <mxPoint x="1740" y="750" />
              <mxPoint x="2060" y="750" />
              <mxPoint x="2060" y="90" />
              <mxPoint x="1000" y="90" />
            </Array>
          </mxGeometry>
        </mxCell>
        <mxCell id="mTHOiytMiAY_9Srzv-4_-179" value="" style="endArrow=diamondThin;endFill=1;endSize=24;html=1;rounded=0;" parent="WIyWlLk6GJQsqaUBKTNV-1" source="mTHOiytMiAY_9Srzv-4_-143" target="mTHOiytMiAY_9Srzv-4_-1" edge="1">
          <mxGeometry width="160" relative="1" as="geometry">
            <mxPoint x="450" y="264" as="sourcePoint" />
            <mxPoint x="1120" y="385" as="targetPoint" />
            <Array as="points">
              <mxPoint x="970" y="680" />
              <mxPoint x="970" y="200" />
            </Array>
          </mxGeometry>
        </mxCell>
        <mxCell id="mTHOiytMiAY_9Srzv-4_-181" value="" style="endArrow=diamondThin;endFill=1;endSize=24;html=1;rounded=0;" parent="WIyWlLk6GJQsqaUBKTNV-1" source="mTHOiytMiAY_9Srzv-4_-132" target="mTHOiytMiAY_9Srzv-4_-1" edge="1">
          <mxGeometry width="160" relative="1" as="geometry">
            <mxPoint x="1041" y="690" as="sourcePoint" />
            <mxPoint x="270" y="108" as="targetPoint" />
            <Array as="points">
              <mxPoint x="960" y="826" />
              <mxPoint x="960" y="210" />
            </Array>
          </mxGeometry>
        </mxCell>
        <mxCell id="mTHOiytMiAY_9Srzv-4_-182" value="" style="endArrow=diamondThin;endFill=1;endSize=24;html=1;rounded=0;" parent="WIyWlLk6GJQsqaUBKTNV-1" source="mTHOiytMiAY_9Srzv-4_-126" target="mTHOiytMiAY_9Srzv-4_-1" edge="1">
          <mxGeometry width="160" relative="1" as="geometry">
            <mxPoint x="1200" y="836" as="sourcePoint" />
            <mxPoint x="270" y="110" as="targetPoint" />
            <Array as="points">
              <mxPoint x="950" y="966" />
              <mxPoint x="950" y="220" />
            </Array>
          </mxGeometry>
        </mxCell>
        <mxCell id="0WKel2wY-fhEkEnzsymB-0" value="Какой паттерн проектирования" style="shape=note;whiteSpace=wrap;html=1;backgroundOutline=1;darkOpacity=0.05;" vertex="1" parent="WIyWlLk6GJQsqaUBKTNV-1">
          <mxGeometry x="1030" y="226" width="80" height="100" as="geometry" />
        </mxCell>
      </root>
    </mxGraphModel>
  </diagram>
</mxfile>
